<?xml version="1.0" standalone="no"?>
<!DOCTYPE svg PUBLIC "-//W3C//DTD SVG 20010904//EN"
 "http://www.w3.org/TR/2001/REC-SVG-20010904/DTD/svg10.dtd">
<svg version="1.0" xmlns="http://www.w3.org/2000/svg"
 width="2050.000000pt" height="780.000000pt" viewBox="0 0 2050.000000 780.000000"
 preserveAspectRatio="xMidYMid meet">
<metadata>
Created by potrace 1.16, written by Peter Selinger 2001-2019
</metadata>
<g transform="translate(0.000000,780.000000) scale(0.100000,-0.100000)"
fill="#000000" stroke="none">
<path d="M12 7788 c-8 -8 -12 -52 -12 -130 0 -109 1 -118 19 -118 10 0 21 -6
24 -14 6 -16 -11 -36 -30 -36 -10 0 -13 -314 -13 -1685 l0 -1685 99 0 c62 0
102 -4 107 -11 4 -7 19 -8 43 -4 20 5 99 7 176 6 152 -2 188 7 148 36 -26 17
-31 43 -9 43 16 0 31 18 23 27 -3 2 -91 4 -197 4 -124 -1 -189 3 -185 9 3 6
35 10 70 10 l63 0 -2 33 c-1 28 2 32 24 32 21 0 26 -5 28 -33 3 -32 5 -34 35
-28 18 3 62 8 100 12 71 7 89 21 35 26 -22 2 -34 9 -36 21 -3 14 4 17 36 17
39 0 40 1 47 40 8 49 0 63 -33 56 -15 -3 -101 -7 -192 -10 l-165 -5 100 14
c55 8 137 14 181 14 52 1 92 6 110 16 19 9 58 15 109 15 95 0 126 13 137 58 9
34 28 41 48 17 7 -8 9 -15 5 -15 -4 0 -2 -6 4 -14 8 -10 38 -13 119 -11 419 9
654 9 659 1 3 -5 6 -95 7 -200 l1 -191 60 -8 c68 -8 618 -9 652 0 13 3 23 9
23 14 0 5 11 14 25 19 14 5 28 17 31 25 9 22 51 19 57 -5 3 -11 13 -23 22 -27
22 -8 51 10 47 29 -1 9 5 21 14 29 23 19 47 0 60 -47 7 -26 19 -43 37 -52 22
-11 25 -18 21 -41 -6 -28 -5 -29 46 -36 39 -5 55 -4 68 8 10 9 41 17 72 19 45
2 55 7 58 22 5 26 -24 46 -66 46 -26 0 -33 3 -28 15 4 12 -3 15 -33 15 -30 0
-40 -4 -44 -20 -3 -11 -12 -20 -21 -20 -13 0 -16 9 -14 41 3 39 4 40 33 35 17
-2 59 -2 95 2 61 7 65 9 65 32 0 23 -4 25 -47 28 -34 2 -48 7 -48 17 0 14 43
31 67 27 6 -1 19 18 29 43 15 39 15 49 4 71 -12 22 -12 29 2 52 23 39 58 54
104 44 36 -7 39 -11 42 -45 2 -24 -5 -50 -21 -79 -22 -40 -29 -99 -14 -115 4
-3 4 -17 0 -31 -7 -28 9 -42 49 -42 34 0 41 -12 27 -44 -14 -30 -44 -34 -70
-10 -16 14 -18 12 -24 -25 -4 -22 -4 -45 0 -51 9 -15 106 -10 133 7 19 12 22
21 20 65 -3 50 -2 52 22 53 24 0 25 2 26 71 1 40 7 89 14 109 12 36 11 39 -11
56 -13 10 -33 19 -44 21 -11 2 -21 11 -23 21 -3 13 11 24 50 42 50 23 61 24
144 17 l89 -7 -3 -50 c-8 -161 -7 -173 12 -194 16 -17 16 -21 4 -21 -24 0 -29
-27 -10 -48 21 -25 81 -34 105 -17 11 8 22 37 28 73 13 75 29 91 64 68 22 -15
25 -23 25 -80 0 -43 4 -65 13 -67 6 -2 74 -3 149 -1 116 3 136 5 131 18 -4 11
-9 12 -18 4 -15 -13 -27 4 -39 53 -5 22 -12 27 -36 27 -16 0 -32 5 -36 12 -5
8 0 9 16 5 12 -3 33 -2 47 4 21 8 23 13 18 46 -12 71 -12 71 -71 79 -30 3 -69
7 -87 8 -21 1 -33 7 -35 19 -3 14 5 16 55 15 46 -2 58 1 61 14 4 21 -7 27 -65
33 -102 12 -128 20 -138 43 -7 16 -18 22 -43 22 -27 0 -33 -3 -28 -16 8 -20
-20 -43 -52 -44 -12 0 -24 6 -26 13 -7 26 -36 115 -55 171 -33 93 -23 159 15
101 10 -15 26 -25 40 -25 18 0 24 -6 24 -21 0 -21 50 -79 69 -79 5 0 13 21 16
48 4 26 13 57 21 69 8 12 14 27 14 32 0 6 11 22 25 37 19 20 25 38 25 70 0 30
-4 42 -12 40 -7 -1 -10 -1 -5 1 4 3 7 17 7 33 0 22 -5 29 -22 32 -16 2 -26 14
-34 38 -10 31 -16 35 -49 38 -35 3 -36 4 -19 18 17 14 14 15 -33 10 -45 -4
-51 -3 -46 11 7 19 -13 16 -132 -17 -103 -29 -131 -31 -127 -7 5 27 -25 20
-32 -8 -9 -34 -27 -31 -55 10 -27 41 -50 44 -97 14 l-34 -21 -10 29 c-6 15
-13 34 -15 41 -6 16 -25 15 -66 -2 -25 -11 -37 -11 -51 -2 -15 9 -25 7 -49 -6
-30 -17 -30 -17 -40 10 -29 75 -15 111 36 98 22 -6 25 -3 25 23 0 16 7 34 15
41 10 8 13 20 9 34 -18 54 1 80 53 71 17 -3 34 -1 37 4 9 13 194 5 212 -9 10
-9 18 -9 27 -1 15 11 37 -3 37 -24 0 -17 46 -57 62 -53 7 2 31 -11 52 -28 35
-29 37 -34 25 -55 -16 -31 -27 -38 -50 -32 -14 4 -17 9 -9 18 5 6 7 15 3 18
-12 13 -23 7 -23 -12 0 -11 -5 -23 -11 -26 -6 -4 -7 -19 -4 -37 5 -21 2 -35
-10 -48 -30 -33 7 -36 59 -6 25 14 54 26 66 26 11 0 52 16 90 35 38 19 76 35
83 35 8 0 22 9 32 20 16 18 21 19 40 6 12 -8 44 -16 73 -19 28 -3 56 -8 62
-12 19 -12 90 6 111 28 14 16 22 18 31 9 7 -7 27 -9 54 -5 35 4 45 2 50 -11 3
-9 12 -16 20 -16 8 0 14 -4 14 -10 0 -5 7 -10 15 -10 20 0 196 -49 217 -61 10
-5 25 -9 33 -9 8 0 23 -4 33 -9 9 -5 30 -15 46 -22 16 -8 34 -26 40 -41 7 -20
17 -28 35 -28 19 0 22 -3 13 -12 -27 -27 5 -61 35 -37 7 7 16 9 19 6 3 -3 -3
-10 -14 -16 -14 -7 -20 -21 -20 -40 1 -28 2 -29 23 -15 25 16 35 10 35 -22 0
-23 -7 -27 -67 -39 -28 -6 -33 -4 -33 13 0 12 -9 22 -22 26 -17 4 -20 8 -12
16 15 15 -29 62 -73 80 -21 8 -33 19 -33 31 0 11 -7 19 -15 19 -8 0 -15 -7
-15 -15 0 -8 5 -15 10 -15 6 0 10 -12 10 -27 0 -47 12 -74 35 -83 28 -11 41
-60 15 -60 -9 0 -27 9 -40 20 -17 15 -26 17 -37 9 -18 -16 -16 -42 7 -82 16
-27 26 -34 42 -30 18 5 19 3 9 -15 -7 -13 -25 -23 -51 -27 -22 -4 -43 -12 -47
-18 -18 -28 -36 -85 -39 -122 -5 -70 -24 -129 -50 -153 -15 -15 -24 -32 -22
-45 3 -22 7 -22 238 -28 327 -7 330 -23 5 -29 l-260 -5 -3 -24 c-3 -16 3 -30
15 -39 13 -10 14 -16 6 -19 -9 -3 -13 -29 -13 -78 0 -63 3 -75 19 -80 29 -9
50 4 53 33 4 37 20 34 30 -6 10 -38 32 -50 59 -34 23 15 66 16 74 2 3 -5 24
-10 46 -10 32 0 41 4 51 25 14 31 30 32 43 3 9 -21 20 -24 108 -32 115 -11
142 -3 156 46 8 30 9 31 10 7 1 -40 30 -59 90 -59 64 0 69 10 61 135 -1 11 2
46 5 78 l7 57 -55 0 c-31 0 -59 5 -63 12 -5 8 4 10 32 6 68 -9 77 0 94 88 13
68 19 79 37 82 17 2 24 -3 28 -21 4 -13 6 -31 5 -38 -7 -49 -7 -49 120 -49 67
0 120 -4 120 -9 0 -13 -30 -19 -55 -11 -11 3 -57 4 -103 2 -104 -4 -105 -22
-2 -39 99 -17 103 -27 7 -19 -93 8 -107 1 -107 -55 0 -49 13 -56 118 -58 73
-2 85 0 100 18 l17 21 22 -25 c12 -14 18 -27 14 -29 -4 -3 -62 -4 -130 -4 -67
0 -127 -4 -132 -9 -6 -6 -9 -34 -7 -64 l3 -54 60 -3 c89 -5 143 5 150 28 6 18
7 18 26 -1 16 -16 27 -19 52 -13 18 4 115 6 217 5 101 0 192 2 202 5 10 3 18
14 18 25 0 33 39 24 52 -12 11 -31 12 -31 57 -24 25 4 64 7 86 7 182 -3 447
-1 528 4 84 6 99 9 108 27 14 24 -6 40 -36 29 -45 -16 -616 8 -655 28 -3 1 15
6 40 10 32 5 53 3 74 -7 17 -9 38 -12 55 -8 14 4 77 6 140 5 63 0 156 2 208 6
90 7 94 8 99 33 12 53 16 62 27 58 7 -2 14 -14 15 -28 7 -47 20 -41 27 13 11
85 5 113 -25 113 -28 0 -41 32 -16 41 9 3 16 14 16 23 0 9 5 22 12 29 15 15
54 16 63 2 3 -5 13 -10 22 -10 12 0 14 7 9 36 -7 34 -6 35 14 24 19 -10 21
-17 15 -53 -4 -23 -14 -47 -22 -54 -8 -6 -13 -20 -11 -30 3 -16 13 -18 73 -15
52 2 73 7 83 19 11 16 15 16 45 1 17 -8 51 -21 74 -27 23 -6 45 -16 48 -21 8
-14 -97 -23 -178 -15 -97 9 -125 1 -119 -31 3 -16 -1 -26 -12 -30 -9 -3 -16
-12 -16 -19 0 -26 56 -34 240 -33 102 0 210 -2 241 -5 47 -6 59 -3 77 14 16
14 20 27 16 44 -7 30 16 43 48 28 15 -6 30 -6 47 3 14 6 94 16 176 20 132 8
187 8 310 4 17 -1 83 1 148 5 134 7 153 0 143 -47 -3 -15 -1 -30 4 -33 18 -11
10 -44 -12 -56 -15 -8 -81 -13 -184 -14 -88 -1 -166 -5 -173 -9 -6 -4 -19 -5
-29 -2 -20 7 -617 11 -837 7 -77 -2 -126 -6 -110 -10 17 -3 30 -13 30 -21 0
-8 5 -18 10 -22 9 -7 320 -4 775 7 291 7 430 15 468 27 44 13 76 4 90 -27 10
-21 15 -24 31 -16 11 7 301 11 787 13 l769 3 -2 -44 c-1 -24 -6 -48 -11 -53
-9 -9 -487 -18 -1175 -22 l-369 -2 -9 23 c-10 28 -29 30 -36 4 -4 -17 -21 -19
-206 -24 -111 -4 -436 -7 -722 -7 -545 0 -555 -1 -539 -43 5 -15 30 -17 223
-19 292 -3 382 -4 841 -11 217 -4 469 -7 560 -8 91 -1 176 -5 190 -9 40 -12
-32 -15 -650 -29 -53 -1 -79 -5 -70 -10 13 -8 1598 -23 2280 -22 146 1 346 -4
445 -10 100 -6 751 -12 1470 -15 3704 -14 3588 -12 3614 -39 24 -25 19 -61
-14 -99 -22 -25 -38 -86 -33 -126 3 -33 -3 -50 -18 -50 -14 0 -14 -2 1 -16 11
-12 14 -24 9 -38 -9 -25 -10 -123 -2 -221 7 -83 42 -153 91 -184 47 -29 79
-66 107 -124 25 -52 25 -52 76 -55 55 -3 73 8 139 91 43 54 84 59 126 18 22
-22 30 -38 26 -52 -3 -12 -2 -29 3 -38 5 -9 18 -50 30 -91 27 -91 44 -125 81
-165 28 -30 28 -31 17 -98 -11 -64 -28 -91 -28 -44 -1 20 -2 20 -11 4 -7 -12
-7 -22 0 -31 7 -8 4 -21 -10 -45 -24 -40 -49 -109 -49 -137 0 -11 -9 -29 -20
-39 -11 -10 -17 -22 -14 -27 4 -5 -6 -23 -22 -39 -25 -26 -28 -27 -40 -11 -12
16 -13 16 -19 0 -4 -9 -2 -25 3 -34 10 -18 0 -54 -24 -84 -6 -8 -15 -35 -19
-60 -4 -25 -11 -50 -16 -56 -6 -8 -3 -13 9 -16 20 -5 24 -37 25 -163 0 -140
-10 -185 -43 -185 -23 0 -38 39 -19 51 11 7 11 9 -1 9 -8 0 -20 11 -27 25 -9
20 -8 25 3 25 18 0 18 39 0 63 -13 17 -17 14 -51 -38 -21 -30 -45 -61 -54 -68
-9 -6 -22 -24 -30 -40 -13 -25 -13 -29 4 -41 26 -19 59 -5 63 25 5 35 19 45
27 19 5 -17 10 -19 21 -9 9 7 14 8 14 1 0 -19 31 -42 56 -42 21 0 24 -5 26
-42 1 -24 1 -52 -1 -63 -1 -11 -2 -31 -2 -45 -1 -14 -6 -31 -12 -38 -8 -10
-13 -6 -24 19 -10 24 -10 35 -2 46 8 9 9 17 2 24 -15 15 -36 -16 -35 -52 0
-17 9 -40 18 -51 15 -16 16 -23 6 -38 -16 -26 -15 -27 8 -33 18 -5 19 -7 5
-34 -8 -15 -15 -51 -15 -79 0 -28 -3 -66 -6 -83 -6 -30 -8 -31 -25 -15 -11 9
-19 26 -19 38 0 13 -3 17 -10 10 -6 -6 -6 -21 2 -42 9 -23 10 -37 2 -49 -16
-26 -35 -27 -41 -4 -3 12 -9 21 -14 21 -11 0 -49 -37 -49 -48 0 -18 -37 -40
-79 -46 -24 -4 -57 -18 -73 -31 -16 -14 -37 -25 -47 -25 -10 0 -23 -11 -29
-25 -17 -37 -35 -31 -55 20 -15 36 -24 45 -43 45 -17 0 -24 -6 -24 -20 0 -11
-7 -23 -15 -26 -8 -4 -15 -12 -15 -20 0 -8 -4 -14 -10 -14 -12 0 -13 17 -1 24
15 10 1 44 -25 61 -20 13 -27 13 -45 3 -18 -11 -22 -11 -26 0 -3 9 -10 4 -19
-13 -18 -35 -18 -35 10 -35 14 0 28 -5 31 -10 3 -6 14 -10 25 -10 24 0 35 -31
16 -46 -9 -6 -13 -14 -10 -17 12 -12 -18 -47 -40 -47 -13 0 -31 -9 -41 -20
-12 -13 -25 -18 -40 -14 -13 3 -27 -1 -34 -10 -7 -8 -25 -18 -41 -21 -16 -3
-34 -13 -41 -21 -18 -21 -60 -18 -66 6 -7 26 -19 26 -26 0 -5 -20 -37 -29 -37
-10 0 6 -8 10 -18 10 -26 0 -44 49 -32 90 13 45 13 43 -10 37 -12 -3 -23 1
-29 10 -6 11 -15 14 -27 9 -17 -7 -17 -9 -3 -19 10 -8 16 -26 15 -52 -1 -36
-4 -40 -28 -43 -26 -3 -33 5 -29 31 1 5 -9 21 -22 37 -17 20 -28 25 -35 18 -7
-7 -18 -3 -35 16 -26 28 -60 36 -51 12 3 -8 1 -23 -4 -33 -10 -17 -11 -17 -17
2 -13 39 -29 67 -33 56 -4 -12 27 -101 40 -116 6 -6 13 -4 19 8 6 9 19 17 30
17 16 0 20 -6 17 -27 -2 -21 -8 -28 -24 -27 -13 0 -29 -11 -40 -28 -21 -32
-35 -32 -49 0 -8 19 -15 21 -50 15 -22 -3 -45 -9 -50 -14 -16 -12 -109 9 -123
29 -7 9 -14 15 -16 12 -2 -3 -20 10 -40 28 -36 33 -53 70 -42 97 3 9 0 15 -8
15 -19 0 -20 -87 -2 -97 7 -5 21 -31 31 -59 17 -49 17 -51 -4 -98 -23 -54 -26
-76 -10 -76 7 0 9 -16 4 -48 -7 -55 10 -82 42 -64 13 8 16 21 14 55 -3 50 12
87 34 87 36 0 49 -88 15 -97 -30 -8 -18 -29 14 -25 22 3 29 -2 39 -27 12 -33
37 -40 56 -18 7 10 7 17 0 24 -18 18 21 113 50 124 15 6 28 6 34 0 9 -9 5 -79
-7 -116 -5 -15 2 -32 23 -59 17 -21 28 -43 25 -48 -3 -5 4 -20 17 -34 16 -17
24 -40 27 -78 5 -59 -5 -74 -39 -54 -17 10 -23 10 -26 1 -3 -7 -12 -22 -22
-34 -17 -22 -18 -22 -71 -4 -57 19 -107 22 -122 7 -16 -16 4 -42 41 -51 48
-13 161 -33 186 -33 35 0 74 -19 80 -39 5 -16 16 -19 61 -19 l55 0 -2 43 c-4
69 0 129 10 123 4 -3 6 -42 4 -86 l-3 -80 60 0 60 0 0 85 c0 67 3 87 15 91 8
4 15 19 15 34 0 16 5 32 10 35 6 3 10 1 10 -4 0 -14 33 -14 47 0 8 8 17 7 34
-2 30 -15 39 -28 39 -59 0 -18 9 -29 32 -41 25 -12 34 -24 40 -55 4 -21 10
-49 13 -62 l5 -22 1654 0 c1562 0 1654 1 1651 18 -36 197 -39 223 -22 239 26
26 41 3 48 -75 4 -37 10 -93 14 -124 l8 -58 161 0 c105 0 166 4 173 11 8 8 25
8 57 1 26 -5 49 -6 52 -1 3 5 2 25 -2 44 -6 35 -5 36 35 52 22 9 41 22 41 29
0 7 9 18 20 24 30 16 9 52 -28 48 -21 -2 -28 -9 -30 -31 -4 -36 -30 -35 -66 2
-27 28 -27 30 -17 97 6 38 20 114 32 169 25 114 26 132 16 198 -7 38 -5 48 7
53 17 7 24 4 75 -27 29 -17 36 -18 48 -6 16 16 7 47 -13 47 -7 0 -21 11 -30
25 -16 25 -44 34 -44 15 0 -5 -10 -10 -21 -10 -18 0 -19 3 -9 15 10 11 9 18
-4 30 -9 9 -16 20 -16 25 0 20 36 80 48 80 8 0 12 9 10 22 -3 18 -29 41 -75
64 -9 4 -9 13 -2 32 8 20 7 28 -6 34 -18 11 -20 34 -2 41 7 3 26 3 42 0 27 -6
28 -4 21 23 -9 34 -27 48 -39 31 -5 -8 -7 -5 -5 8 2 15 12 21 37 23 22 2 35
10 38 22 6 21 43 34 57 20 6 -6 4 -15 -4 -25 -10 -12 -10 -15 4 -15 9 0 25 -6
37 -13 18 -10 23 -9 40 15 14 19 30 28 49 28 20 0 29 6 33 22 8 27 1 38 -24
38 -10 0 -19 4 -19 10 0 5 -9 14 -19 20 -28 15 -36 -5 -12 -29 22 -22 13 -35
-24 -35 -33 0 -49 14 -31 27 13 11 13 14 -1 32 -10 13 -17 16 -20 8 -3 -8 -15
-10 -33 -6 -26 5 -32 0 -58 -40 -59 -94 -126 -123 -147 -64 -8 24 -6 31 9 43
15 10 23 11 33 2 21 -17 59 5 66 38 8 43 -2 57 -34 50 -21 -4 -29 -2 -29 8 0
8 6 16 12 18 9 3 8 10 -5 22 -25 26 -47 13 -47 -27 0 -19 -3 -36 -6 -39 -9
-10 -44 4 -44 17 0 7 -7 15 -15 19 -8 3 -15 12 -15 19 0 8 -7 20 -15 27 -8 7
-15 22 -15 34 0 21 -36 53 -48 42 -3 -3 -12 3 -20 15 -8 11 -11 23 -8 26 3 4
6 1 6 -5 0 -7 5 -12 11 -12 5 0 9 8 8 17 -3 34 1 42 28 55 23 11 29 21 31 54
3 36 0 42 -20 47 l-22 6 24 26 c13 14 32 25 42 25 22 0 23 8 4 29 -13 14 -12
19 0 36 15 20 16 20 40 -8 13 -15 24 -33 24 -40 0 -7 -4 -6 -10 3 -7 11 -12
12 -21 3 -8 -8 -6 -16 9 -31 20 -20 20 -20 37 0 15 18 19 19 32 5 12 -11 12
-19 4 -35 -15 -29 -14 -52 5 -73 12 -13 13 -22 5 -38 -15 -27 -14 -31 9 -31
11 0 20 -4 20 -9 0 -5 14 -14 30 -21 17 -7 35 -21 41 -31 9 -17 7 -18 -16 -9
-27 10 -55 4 -55 -12 0 -5 15 -8 33 -6 27 3 32 0 32 -19 0 -33 13 -39 35 -15
12 12 25 22 30 22 6 0 6 9 1 23 -12 30 4 60 18 37 6 -8 13 -11 17 -7 4 4 2 13
-4 19 -7 7 -12 18 -12 25 0 21 28 27 45 9 21 -20 36 -21 29 -1 -7 16 12 45 29
45 5 0 7 -14 4 -34 -7 -44 22 -79 58 -70 24 6 25 4 25 -40 0 -39 3 -46 19 -46
11 0 33 -14 49 -31 25 -26 31 -29 55 -20 21 8 27 8 27 -3 0 -28 35 -76 63 -85
17 -7 27 -17 27 -30 0 -12 7 -21 15 -21 19 0 19 -20 0 -47 -9 -12 -15 -26 -14
-30 7 -32 -43 -60 -54 -30 -4 10 -6 10 -6 0 -1 -7 -8 -13 -16 -13 -8 0 -15 -6
-15 -13 0 -24 13 -28 32 -10 18 16 21 16 46 1 15 -9 31 -25 37 -37 11 -25 23
-27 31 -6 4 9 19 15 35 15 22 0 30 -6 35 -25 6 -26 19 -31 43 -16 12 8 12 12
2 25 -8 9 -20 16 -27 16 -19 0 -54 31 -54 48 0 12 4 12 22 0 13 -8 34 -17 47
-21 23 -6 22 -4 -8 24 -18 16 -31 35 -28 42 5 15 39 10 53 -9 17 -21 47 -18
42 4 -3 11 2 23 12 30 24 15 31 5 25 -37 -4 -29 0 -42 19 -63 14 -16 31 -28
38 -28 18 1 43 21 57 48 16 31 25 28 45 -17 15 -37 22 -41 74 -52 l57 -13 -48
-7 c-56 -9 -65 -15 -49 -31 7 -7 12 -21 12 -31 0 -16 -3 -17 -15 -7 -12 10
-20 7 -46 -18 l-32 -31 27 -23 c15 -13 41 -52 59 -87 39 -76 63 -93 53 -37 -6
29 -4 36 9 36 9 0 15 9 15 24 0 14 5 28 12 32 7 5 -1 12 -22 19 -34 11 -34 12
-12 24 12 6 22 18 22 25 0 14 30 26 68 26 13 0 22 -6 22 -16 0 -8 5 -12 10 -9
6 3 10 15 10 27 0 16 3 18 14 9 7 -6 11 -22 8 -36 -3 -20 0 -25 15 -25 10 0
26 9 36 20 12 15 24 19 42 14 20 -5 26 -1 34 18 5 13 16 30 25 37 9 7 16 23
16 35 0 45 12 66 36 66 13 0 24 5 24 10 0 20 27 9 38 -15 15 -33 15 -35 -2
-35 -22 0 -28 -17 -16 -40 17 -32 64 -24 68 12 2 21 -1 28 -13 28 -12 0 -15 5
-9 23 3 12 11 23 15 25 5 2 9 75 9 162 0 171 0 170 -56 170 l-25 0 20 29 c12
16 21 34 21 41 0 7 8 9 20 5 17 -5 20 -2 20 24 0 26 -4 31 -25 31 -19 0 -25
-5 -25 -21 0 -20 -2 -19 -22 7 -13 16 -26 31 -30 32 -5 2 -8 20 -8 40 l0 36
-20 -22 c-12 -12 -27 -22 -35 -22 -23 0 -28 20 -9 34 9 7 14 18 10 25 -6 8 -1
10 17 6 22 -6 23 -4 19 24 -5 36 -17 40 -33 10 -7 -13 -17 -19 -29 -16 -11 3
-21 -2 -25 -12 -5 -13 -9 -12 -19 9 -19 37 -27 88 -15 96 6 4 15 0 20 -7 7
-11 10 -9 15 9 4 14 12 21 20 18 8 -3 14 1 14 10 0 8 6 17 14 20 16 6 10 34
-6 34 -5 0 -18 -10 -27 -22 -23 -28 -72 -19 -64 12 8 32 -15 23 -33 -12 -12
-24 -14 -36 -6 -49 9 -13 8 -27 -4 -54 -18 -43 -11 -70 22 -91 18 -13 21 -20
14 -34 -19 -36 -108 -32 -94 5 3 7 -3 16 -15 20 -25 8 -27 18 -6 35 13 11 12
16 -5 40 -11 16 -20 38 -20 50 0 11 -4 18 -10 15 -5 -3 -10 -15 -10 -26 0 -11
-7 -22 -15 -25 -8 -4 -15 -15 -15 -26 0 -10 5 -16 10 -13 6 4 10 -10 10 -34 0
-36 3 -41 22 -41 14 0 18 -4 13 -9 -16 -15 -67 0 -73 21 -4 17 -5 18 -17 1
-12 -16 -14 -14 -20 17 -8 50 -2 109 13 115 16 6 15 25 -3 70 -13 30 -18 35
-31 24 -10 -8 -11 -15 -4 -24 13 -15 3 -25 -27 -25 -15 0 -23 6 -23 18 -1 9
-15 26 -33 37 -18 11 -33 30 -35 41 -3 18 4 22 37 28 27 4 41 11 41 21 0 8 -5
15 -10 15 -7 0 -7 7 1 21 7 14 17 19 30 16 12 -3 19 0 19 9 0 10 -12 14 -40
14 -29 0 -40 4 -40 15 0 9 -7 18 -15 21 -8 4 -15 10 -15 15 0 5 7 9 15 9 21 0
19 13 -5 35 -19 18 -19 18 6 48 l25 30 -22 20 c-12 11 -24 16 -28 10 -3 -5
-14 -12 -23 -16 -12 -4 -18 -17 -18 -35 0 -40 -8 -44 -40 -22 -47 33 -80 24
-54 -15 14 -22 14 -24 -6 -30 -21 -7 -21 -8 9 -28 17 -12 31 -27 31 -33 0 -6
6 -16 13 -22 16 -13 47 8 47 32 0 10 5 14 10 11 6 -4 8 -15 5 -26 -4 -10 -2
-19 4 -19 6 0 20 -8 31 -17 25 -22 7 -36 -27 -20 -16 7 -30 7 -48 -1 -29 -13
-33 -32 -7 -32 27 0 42 -20 41 -54 0 -17 -3 -25 -6 -18 -2 6 -14 12 -26 12
-34 0 -127 -24 -127 -32 0 -5 5 -8 10 -8 6 0 10 -7 10 -15 0 -8 -5 -15 -11
-15 -6 0 -9 -6 -6 -13 3 -7 -1 -21 -9 -32 -8 -10 -14 -13 -14 -7 0 7 -4 12
-10 12 -21 0 -8 -19 20 -29 17 -5 30 -15 30 -20 0 -6 7 -11 15 -11 13 0 15 7
9 35 -4 26 -3 35 7 35 10 0 10 3 1 12 -19 19 -14 28 17 28 20 0 31 -6 33 -17
2 -11 12 -18 27 -18 13 0 26 -7 29 -15 5 -13 3 -13 -11 -1 -10 8 -17 9 -17 3
0 -6 -11 -22 -25 -36 -16 -16 -25 -36 -25 -56 0 -17 -7 -45 -16 -61 -16 -32
-6 -59 22 -59 8 0 14 -9 14 -20 0 -15 7 -20 25 -20 20 0 25 -5 25 -25 0 -18 5
-25 20 -25 11 0 20 -4 20 -10 0 -5 -4 -10 -10 -10 -16 0 -12 -18 10 -40 11
-11 20 -24 20 -29 0 -14 -57 17 -64 35 -8 22 -26 7 -26 -22 0 -13 -4 -24 -10
-24 -5 0 -10 -13 -10 -29 0 -20 8 -34 26 -46 l26 -17 -24 -16 c-12 -9 -26 -21
-30 -26 -4 -6 -8 5 -8 25 0 40 -30 69 -71 69 -18 0 -19 3 -9 15 6 8 9 19 5 26
-4 6 -1 22 6 36 10 19 10 28 1 43 -15 24 -15 53 -1 67 8 8 8 17 0 31 -8 15 -7
23 4 32 31 26 8 86 -25 65 -8 -5 -6 -11 6 -19 11 -9 14 -18 8 -27 -5 -8 -9
-20 -10 -27 -3 -17 -36 -42 -49 -38 -13 4 -7 68 9 83 16 17 8 93 -9 87 -7 -3
-11 -14 -8 -24 5 -18 -17 -50 -33 -50 -5 0 -3 5 4 12 9 9 7 17 -9 34 -19 20
-20 26 -9 59 7 20 10 38 7 41 -2 2 -23 -5 -46 -18 -36 -19 -41 -26 -41 -57 l0
-34 -26 23 c-27 27 -28 26 -60 -32 -8 -16 -10 -28 -4 -28 5 0 10 -11 10 -24 0
-13 7 -26 15 -30 8 -3 15 -10 15 -16 0 -18 -28 -11 -47 13 -20 25 -53 25 -53
-1 0 -14 -2 -15 -9 -3 -6 10 -5 18 4 25 25 20 28 59 5 83 -11 12 -20 36 -20
53 0 20 -5 30 -15 30 -23 0 -39 38 -24 56 11 13 14 13 23 -5 8 -14 15 -18 26
-11 12 7 12 12 2 22 -17 17 -15 38 3 38 8 0 15 -4 15 -9 0 -5 10 -11 22 -15
22 -5 22 -6 4 -19 -17 -12 -17 -17 -5 -50 10 -28 10 -39 1 -50 -12 -14 -7 -47
7 -47 3 0 12 14 20 31 9 21 19 29 31 26 31 -8 50 10 40 38 -8 22 -7 25 15 25
32 0 41 16 16 30 -13 7 -22 7 -26 0 -13 -21 -22 -8 -22 31 0 27 -6 45 -15 50
-12 7 -14 23 -10 77 l4 69 -31 16 c-28 14 -32 14 -41 -1 -9 -16 -9 -16 -10 1
0 9 -4 17 -9 17 -5 0 -14 12 -19 28 l-9 27 -7 -32 c-10 -45 0 -73 28 -73 12 0
27 5 33 11 15 15 43 4 43 -17 0 -10 -8 -26 -17 -37 -13 -15 -15 -21 -5 -24 6
-3 12 -9 12 -14 0 -6 -5 -7 -10 -4 -6 4 -22 0 -35 -9 -22 -15 -25 -14 -33 0
-11 19 -4 54 9 54 5 0 9 5 9 10 0 20 -20 9 -35 -19 -9 -19 -11 -32 -5 -36 17
-10 2 -24 -23 -21 -76 10 -105 58 -39 64 33 3 44 25 17 36 -8 3 -15 1 -15 -4
0 -6 -9 -10 -20 -10 -11 0 -20 5 -20 10 0 6 -7 10 -15 10 -19 0 -19 10 1 38 9
13 22 21 30 18 8 -3 14 1 14 8 0 8 -10 16 -22 20 -40 10 -96 -76 -65 -99 10
-7 14 -20 11 -32 -3 -11 2 -35 11 -53 15 -29 18 -30 29 -14 9 12 15 14 20 5 4
-6 3 -18 -4 -26 -8 -10 -6 -17 12 -29 18 -13 21 -20 12 -33 -16 -26 -33 -27
-43 -1 l-10 23 -1 -25 c0 -14 -3 -35 -6 -47 -5 -18 0 -26 25 -40 21 -13 29
-23 25 -36 -4 -11 0 -17 11 -17 9 0 18 12 21 30 4 17 13 30 20 30 11 0 13 -7
8 -27 -7 -28 -43 -83 -53 -83 -3 0 -15 20 -26 45 -22 50 -35 47 -60 -12 -17
-39 -31 -42 -39 -8 -4 16 -13 25 -26 25 -11 0 -20 5 -20 10 0 15 48 12 53 -2
2 -7 7 -10 11 -7 3 3 4 14 0 23 -8 22 -74 23 -74 1 0 -19 -36 -60 -43 -48 -2
4 -8 22 -11 40 -7 29 -5 31 14 26 13 -4 26 0 31 8 15 24 10 31 -17 25 -22 -6
-24 -5 -15 13 15 27 15 28 -23 29 -36 1 -56 -22 -36 -42 13 -13 13 -46 0 -46
-5 0 -10 7 -10 15 0 8 -4 15 -8 15 -4 0 -32 23 -62 50 -30 28 -58 50 -62 50
-5 0 -13 11 -18 25 -5 14 -17 25 -26 25 -12 0 -15 6 -10 25 5 19 2 25 -9 25
-23 0 -30 -30 -14 -59 8 -15 12 -39 9 -55 l-5 -29 -33 37 c-18 20 -37 34 -43
30 -7 -4 -3 -14 11 -29 17 -18 18 -24 7 -33 -8 -7 -17 -9 -20 -5 -4 3 -7 1 -7
-5 0 -7 -7 -12 -15 -12 -20 0 -29 -24 -17 -45 8 -15 12 -14 31 11 13 16 25 24
30 18 12 -13 24 -84 14 -84 -5 0 -15 -21 -22 -46 -10 -34 -11 -48 -2 -57 6 -6
11 -22 11 -34 0 -24 0 -24 -25 -6 -18 13 -24 24 -20 40 3 12 1 25 -5 28 -5 3
-10 1 -10 -4 0 -34 -70 11 -94 61 -17 32 -21 78 -8 78 4 0 20 -16 36 -36 31
-39 46 -34 46 18 0 32 -15 45 -24 21 -5 -13 -9 -14 -19 -4 -9 10 -8 15 6 25
19 15 23 36 6 36 -15 0 -59 42 -59 58 0 16 -10 15 -31 -4 -17 -15 -19 -15 -30
9 -8 18 -9 30 -2 39 16 20 25 72 17 102 -7 28 -40 36 -62 14 -8 -8 -12 -9 -12
-1 0 17 -65 83 -81 83 -37 1 -88 72 -68 96 13 16 4 34 -17 34 -17 0 -19 46 -1
53 9 4 9 6 0 6 -6 1 -15 -4 -18 -9 -3 -6 -15 -10 -27 -10 -17 0 -19 4 -14 25
7 27 -27 74 -40 54 -10 -16 -36 28 -29 50 4 12 0 21 -11 25 -13 5 -15 9 -6 18
19 19 15 51 -4 44 -24 -9 -54 22 -54 57 0 17 -11 45 -25 63 -14 18 -25 38 -25
44 0 6 -7 13 -15 16 -8 4 -15 13 -15 21 0 9 6 13 14 10 7 -3 19 0 25 6 13 13
14 76 2 96 -13 21 -43 5 -40 -21 3 -28 -9 -68 -21 -68 -24 0 -42 16 -65 59
-14 25 -41 57 -60 71 -19 14 -35 30 -35 36 0 25 -28 22 -35 -3 -4 -18 -11 -24
-23 -20 -153 49 -206 48 -676 -2 -90 -10 -125 -4 -127 22 -4 40 8 65 52 110
27 27 54 64 61 83 10 27 17 34 39 34 15 0 30 4 34 10 18 29 314 74 442 67 72
-4 94 -2 104 9 9 11 9 17 -1 29 -7 8 -10 25 -6 38 3 14 -1 32 -9 43 -8 10 -15
32 -15 48 0 16 -9 43 -20 61 -27 44 -19 122 14 127 14 2 22 11 24 30 2 16 18
42 38 60 19 18 34 41 34 51 0 10 13 37 28 60 16 23 36 69 46 102 9 33 38 101
63 152 39 78 45 97 40 130 -7 40 12 83 35 83 6 0 19 6 27 14 9 8 44 16 81 18
55 3 65 1 62 -13 -3 -19 35 -29 114 -29 38 0 56 5 62 16 7 13 61 16 428 20
230 2 428 5 438 6 13 2 24 -6 32 -21 7 -13 20 -28 29 -34 15 -8 15 -11 0 -33
-9 -14 -13 -29 -10 -34 3 -5 0 -18 -7 -29 -10 -16 -10 -23 0 -33 13 -13 17
-48 5 -48 -110 -6 -870 -11 -1213 -9 -102 1 -100 2 -100 -20 0 -21 21 -31 74
-36 17 -2 398 -6 846 -9 448 -4 837 -9 864 -11 26 -3 99 -7 162 -10 62 -3 125
-10 141 -16 15 -5 104 -14 198 -20 93 -5 202 -12 242 -15 39 -4 87 -4 107 0
l36 7 0 78 0 78 -117 -1 c-65 0 -127 1 -138 3 -11 1 -47 -2 -80 -7 -33 -6
-262 -12 -510 -14 -445 -3 -450 -3 -447 17 12 65 13 105 3 124 -8 15 -9 27 -2
40 10 18 32 19 635 20 343 1 631 4 640 7 15 6 16 118 16 1197 0 926 -3 1188
-12 1179 -17 -17 -39 -15 -32 3 4 8 15 15 25 15 15 0 19 7 19 35 0 38 4 38
-75 4 -11 -5 -32 -13 -47 -19 -17 -6 -28 -17 -28 -29 0 -22 18 -31 63 -31 33
-1 67 -19 67 -37 0 -16 -38 -46 -49 -38 -14 8 -61 -42 -61 -65 0 -17 -25 -75
-43 -98 -7 -9 -17 0 -38 34 -16 25 -34 42 -39 39 -6 -3 -10 -31 -10 -61 l0
-56 -26 31 c-21 25 -23 34 -14 51 6 12 9 28 6 36 -4 11 -10 12 -33 2 -15 -7
-33 -20 -40 -28 -9 -12 -12 -8 -18 23 -8 42 6 67 37 67 15 0 18 5 13 20 -9 29
3 25 35 -11 15 -18 32 -29 38 -25 14 9 2 48 -13 42 -13 -5 -35 12 -35 27 0 5
13 7 30 4 19 -4 34 -1 44 8 9 10 17 11 21 5 4 -6 11 -8 16 -4 6 3 4 15 -5 30
-9 13 -16 39 -16 59 0 21 -4 34 -10 30 -5 -3 -7 -12 -4 -19 6 -16 -15 -33 -25
-20 -8 12 -42 33 -63 40 -10 4 -18 15 -18 25 0 10 -9 23 -20 29 -11 6 -20 18
-20 28 1 16 2 16 14 -1 8 -10 16 -14 19 -10 9 15 -8 33 -39 42 -16 4 -30 15
-32 23 -2 12 2 15 18 11 20 -5 21 -3 15 30 -6 32 -4 38 18 48 20 9 30 8 51 -6
29 -19 34 -40 12 -48 -12 -5 -13 -13 -6 -38 5 -18 7 -43 4 -56 -5 -20 -2 -23
20 -23 27 0 31 9 27 63 -3 36 13 34 56 -8 41 -40 49 -42 75 -18 17 15 19 15
37 -1 11 -10 22 -28 25 -42 8 -29 20 -30 46 -4 12 12 20 33 20 54 0 28 -4 35
-22 39 l-23 4 23 2 c21 1 22 4 22 100 0 94 -1 99 -20 94 -24 -6 -70 21 -70 42
0 8 7 15 15 15 8 0 15 7 15 15 0 8 4 15 10 15 5 0 7 -7 4 -15 -5 -11 1 -15 20
-15 l26 0 0 137 c0 129 -1 135 -18 121 -34 -30 -46 -33 -40 -10 4 15 0 22 -16
27 -24 7 -17 11 37 20 l37 6 0 159 c0 88 -4 160 -8 160 -5 0 -14 -11 -20 -25
-10 -22 -17 -25 -70 -25 -63 0 -82 11 -82 47 0 33 30 42 48 15 19 -30 66 -29
87 1 12 15 19 18 22 10 13 -34 23 -6 23 62 l0 75 -58 0 c-32 0 -63 -5 -70 -12
-8 -8 -15 -8 -27 2 -12 10 -21 10 -38 2 -43 -20 -77 -23 -83 -7 -10 24 -115
21 -137 -5 -22 -26 -53 -26 -67 0 -11 20 -19 21 -236 19 -196 -1 -256 -7 -212
-21 6 -2 8 -9 4 -16 -9 -15 -34 -4 -41 19 -6 18 -18 19 -161 19 l-154 0 0 -25
c0 -14 8 -29 20 -35 12 -6 20 -21 20 -35 0 -14 5 -25 10 -25 6 0 10 14 10 30
0 28 3 30 35 30 19 0 35 5 35 10 0 16 30 12 37 -5 6 -16 -22 -44 -44 -45 -7 0
-23 -11 -37 -25 -14 -14 -34 -25 -45 -25 -13 0 -21 -8 -23 -22 -4 -28 -36 -36
-45 -12 -4 10 -2 19 5 22 17 5 15 32 -2 38 -11 4 -13 12 -6 28 14 39 1 72 -34
84 -40 15 -123 16 -131 2 -4 -7 -12 -7 -25 0 -24 13 -720 14 -720 1 0 -5 6
-12 12 -14 7 -3 3 -6 -9 -6 -12 -1 -25 4 -28 9 -5 8 -11 8 -20 0 -9 -8 -17 -7
-28 5 -14 13 -89 15 -611 15 -354 0 -597 -4 -601 -9 -3 -6 -18 -6 -38 0 -18 5
-354 9 -789 9 -751 0 -758 0 -758 -20 0 -11 -5 -20 -11 -20 -6 0 -8 9 -4 20 5
17 2 20 -25 20 -17 0 -33 -6 -36 -13 -6 -15 -100 -12 -120 4 -18 14 -2171 11
-2193 -3 -16 -10 -17 -16 -8 -37 18 -42 36 -52 62 -35 21 14 23 13 28 -8 4
-15 0 -26 -14 -36 -13 -9 -19 -21 -16 -33 4 -16 0 -19 -26 -19 -18 0 -43 9
-57 20 -30 23 -59 25 -86 5 -43 -32 -64 1 -22 35 20 16 22 22 12 48 -10 27 -9
32 15 50 l26 21 -36 0 c-33 1 -37 -2 -42 -29 -5 -21 -12 -30 -27 -30 -11 0
-27 -11 -36 -25 -10 -15 -26 -25 -40 -25 -30 0 -39 16 -19 36 9 9 14 18 11 21
-7 7 -46 -16 -46 -27 0 -6 -12 -10 -26 -10 -15 0 -53 -10 -86 -22 -56 -22 -59
-24 -54 -52 4 -16 6 -37 6 -47 0 -27 26 -24 56 6 14 14 28 25 31 25 12 0 32
-36 33 -57 0 -32 10 -53 26 -53 8 0 14 4 14 9 0 5 15 15 33 22 17 7 36 15 40
17 5 2 7 -4 5 -14 -2 -16 4 -19 41 -21 24 0 48 -6 53 -11 17 -17 -1 -52 -26
-52 -27 0 -46 -18 -46 -42 0 -11 -7 -18 -18 -18 -23 0 -42 19 -42 41 0 13 -16
21 -67 33 -38 9 -77 18 -88 22 -17 4 -24 -3 -39 -36 -10 -22 -29 -48 -42 -57
-35 -23 -14 -45 39 -41 47 3 59 -13 22 -30 -29 -13 -35 -61 -10 -82 14 -12 14
-15 -4 -34 -11 -12 -22 -37 -26 -56 l-6 -35 65 -3 c56 -2 67 0 76 17 8 17 6
20 -12 23 -33 4 -33 32 -2 63 23 23 28 25 41 12 13 -13 13 -18 -2 -40 -19 -30
-16 -33 53 -42 48 -6 52 -5 52 13 0 24 16 37 25 22 3 -5 17 -7 30 -4 12 3 26
1 30 -6 5 -8 11 -8 21 1 13 10 12 15 -2 36 -11 17 -14 36 -9 59 7 41 -5 44
-39 9 -14 -14 -32 -25 -39 -25 -19 0 -27 43 -11 64 6 9 10 26 7 36 -7 25 33
43 60 28 22 -11 60 25 71 67 9 37 40 30 44 -11 2 -24 -5 -40 -27 -65 l-31 -33
23 -13 c32 -18 37 -16 37 16 0 16 7 37 16 46 16 15 18 14 34 -10 9 -14 27 -33
39 -42 21 -14 25 -13 59 11 37 27 54 27 32 1 -15 -18 -6 -45 14 -45 9 0 21 10
27 23 7 12 18 26 26 30 9 5 13 22 12 40 -4 63 0 77 22 77 15 0 19 -4 15 -15
-3 -8 -9 -22 -12 -30 -3 -8 -1 -15 5 -15 6 0 11 4 11 9 0 5 14 11 31 13 29 5
33 2 47 -34 10 -25 21 -38 34 -38 10 0 18 4 18 8 0 5 6 17 14 27 10 14 17 17
27 9 8 -6 24 -14 37 -17 17 -4 23 0 28 17 3 12 13 27 23 33 14 9 23 6 49 -18
18 -17 32 -26 32 -21 0 5 11 21 25 36 14 15 25 34 25 42 0 7 7 14 15 14 8 0
15 -6 15 -14 0 -8 10 -22 21 -30 14 -9 19 -21 15 -31 -4 -12 0 -19 15 -22 14
-4 19 -12 16 -24 -3 -12 0 -19 9 -19 8 0 14 -4 14 -9 0 -16 -24 -18 -50 -4
-42 22 -66 13 -39 -14 16 -16 1 -35 -23 -27 -38 12 -72 -13 -96 -71 -12 -31
-22 -61 -22 -69 0 -17 -33 -46 -53 -46 -9 0 -22 -8 -29 -17 -19 -26 -53 -42
-74 -37 -25 6 -52 -49 -35 -70 14 -17 -2 -31 -44 -39 -110 -20 -124 -27 -131
-63 -7 -39 -18 -43 -34 -13 -7 13 -19 19 -33 17 -19 -3 -21 -10 -25 -83 -2
-44 -8 -82 -13 -86 -6 -3 -21 -4 -33 -2 -16 3 -29 -3 -44 -21 -12 -16 -30 -26
-45 -26 -14 0 -32 -3 -41 -6 -28 -11 -17 -24 20 -24 36 0 36 -1 30 -32 -4 -18
-9 -49 -13 -68 -3 -19 -13 -42 -23 -50 -27 -22 -36 -68 -16 -76 13 -5 15 -14
10 -43 -3 -20 -12 -40 -18 -46 -7 -5 -15 -29 -18 -51 -7 -48 -51 -117 -56 -89
-2 10 1 20 6 24 6 4 8 20 4 39 -6 29 -15 36 -72 61 -75 31 -120 27 -120 -12 0
-16 -3 -18 -12 -9 -19 19 -34 15 -71 -18 l-34 -29 -11 24 c-13 29 -27 32 -40
10 -4 -9 -26 -18 -48 -22 -50 -7 -61 -16 -68 -57 -4 -20 -15 -38 -30 -46 -14
-7 -22 -18 -19 -26 3 -9 -2 -14 -12 -14 -11 0 -15 5 -12 15 9 21 -13 30 -31
12 -14 -14 -14 -18 1 -41 10 -14 17 -30 17 -35 0 -16 -61 -31 -131 -31 -59 0
-68 -3 -74 -20 -9 -28 -19 -25 -50 12 -24 28 -28 30 -37 15 -6 -11 -19 -16
-39 -15 -20 2 -34 -3 -40 -15 -6 -9 -20 -17 -32 -17 -12 -1 -33 -7 -46 -14
-13 -7 -31 -11 -40 -9 -10 2 -21 -7 -29 -27 -14 -30 -14 -30 -42 -13 -33 19
-31 29 8 38 39 8 58 59 33 84 -15 15 -17 31 -15 90 2 39 1 71 -2 71 -3 0 -23
-10 -44 -22 -39 -23 -40 -23 -73 -5 -21 11 -49 17 -73 15 -37 -3 -39 -5 -36
-33 2 -16 8 -34 13 -40 10 -10 12 -55 3 -79 -8 -22 -26 -20 -47 4 -9 11 -23
20 -31 20 -7 0 -16 9 -19 21 -3 12 -10 18 -16 15 -6 -4 -8 -12 -6 -19 2 -7
-12 -24 -31 -39 -34 -26 -38 -26 -65 -13 -15 8 -37 15 -48 15 -11 0 -21 8 -23
17 -2 14 -14 16 -73 14 -59 -2 -72 -6 -92 -27 -13 -14 -27 -23 -32 -20 -12 8
-12 76 0 76 12 0 12 47 -1 69 -15 29 -38 33 -33 7 4 -17 -5 -29 -31 -49 -67
-52 -99 -25 -37 32 29 27 37 41 30 48 -8 8 -7 21 2 46 12 34 5 82 -9 61 -4 -6
-22 -14 -41 -17 -29 -6 -32 -5 -26 11 13 28 11 65 -2 69 -7 3 -13 0 -13 -6 0
-5 -5 -22 -10 -37 l-10 -27 -21 24 c-12 13 -26 36 -31 51 -6 16 -21 31 -40 37
-27 9 -29 14 -23 41 7 32 -5 40 -25 16 -10 -13 -16 -12 -43 5 -18 10 -42 19
-54 19 -26 0 -47 -33 -38 -60 5 -17 0 -19 -42 -20 -26 -1 -64 -2 -83 -3 -27
-2 -35 2 -38 17 -2 11 -14 30 -27 44 -12 13 -27 40 -33 61 -6 20 -25 51 -41
69 -24 25 -38 32 -68 32 -22 0 -43 4 -49 9 -15 14 -72 -7 -79 -30 l-7 -21 -23
22 c-14 13 -21 29 -18 41 6 21 -28 41 -35 21 -2 -7 -12 -12 -23 -12 -12 0 -19
-7 -19 -20 0 -22 -25 -39 -49 -33 -26 6 -72 -44 -66 -70 8 -31 -19 -53 -76
-61 -44 -7 -48 -5 -68 23 l-22 30 33 17 32 16 -31 27 c-17 14 -34 37 -38 50
-5 16 -10 20 -17 13 -7 -7 -19 -7 -34 -2 -17 7 -29 4 -48 -11 -34 -27 -70 -17
-64 16 5 24 -20 44 -52 43 -8 0 -23 3 -32 7 -14 5 -18 2 -18 -14 0 -27 -22
-36 -49 -21 -24 13 -28 52 -8 90 8 14 12 31 9 38 -5 17 -41 15 -48 -3 -7 -17
-65 -35 -92 -29 -10 3 -26 -4 -37 -15 -18 -21 -18 -22 4 -45 28 -30 19 -56
-20 -56 -19 0 -32 7 -40 23 -6 12 -13 23 -14 25 -3 4 -56 -28 -65 -38 -11 -13
-136 -8 -163 6 -16 9 -42 14 -59 12 l-30 -3 18 -23 c13 -16 35 -25 68 -30 46
-7 78 -32 40 -32 -10 0 -25 -7 -35 -15 -15 -14 -18 -14 -32 -1 -8 9 -17 20
-19 26 -5 17 -64 -8 -82 -35 -12 -19 -24 -23 -64 -23 -57 0 -95 -10 -87 -23 4
-5 19 -9 35 -9 16 0 32 -4 35 -10 3 -5 16 -10 28 -11 20 -1 20 -2 -3 -9 -40
-13 -50 -11 -51 8 0 14 -2 13 -11 -5 -6 -13 -22 -23 -37 -25 -30 -3 -41 -39
-20 -65 11 -13 9 -19 -14 -39 -15 -13 -27 -29 -27 -37 0 -8 -9 -17 -20 -20
-12 -3 -20 -14 -20 -26 0 -24 -28 -41 -67 -41 -20 0 -31 -7 -38 -22 -6 -14
-21 -24 -37 -26 -15 -2 -50 -24 -78 -49 -47 -43 -65 -48 -65 -20 -1 15 -96 11
-105 -4 -4 -5 -34 -12 -67 -14 -34 -2 -78 -11 -100 -20 -27 -12 -53 -15 -90
-10 -29 4 -78 6 -108 6 -30 0 -57 4 -60 8 -2 5 -15 6 -29 4 -13 -3 -27 0 -30
6 -4 6 -14 11 -23 11 -9 0 -35 20 -58 45 -44 46 -53 46 -69 1 -5 -14 -9 -16
-20 -7 -18 15 -27 2 -15 -21 19 -35 4 -48 -55 -48 -45 0 -57 -4 -66 -20 -9
-16 -18 -19 -56 -15 -36 3 -53 -1 -75 -17 -27 -20 -30 -20 -47 -5 -10 9 -25
17 -33 17 -19 1 -52 48 -45 66 3 7 17 14 32 14 16 0 24 5 21 13 -2 6 -13 10
-23 9 -26 -5 -102 -5 -139 1 -19 2 -33 12 -40 28 -19 46 -28 55 -34 37 -5 -15
-8 -14 -29 2 -21 18 -22 21 -9 42 11 16 12 30 6 47 -8 19 -15 22 -40 19 -20
-3 -33 0 -36 9 -3 7 -14 13 -25 13 -27 0 -84 58 -70 72 7 7 7 19 2 33 -11 29
4 45 44 46 26 2 27 2 6 5 -14 2 -60 12 -102 21 -62 14 -78 21 -78 36 0 22 -46
41 -80 32 -39 -10 -80 -6 -109 10 -14 8 -20 14 -12 15 8 0 11 6 7 16 -4 9 -1
23 5 30 13 16 9 17 -23 5 -27 -10 -88 10 -88 29 0 6 7 24 15 40 14 27 14 30
-6 44 -18 12 -21 21 -15 58 6 40 4 46 -29 78 -19 19 -35 40 -35 47 0 19 -108
18 -130 -2 -19 -17 -50 -10 -50 11 0 8 5 14 10 14 22 0 8 26 -25 48 -19 12
-37 22 -41 22 -3 0 -21 -17 -41 -37 -32 -35 -36 -36 -48 -20 -13 18 -31 24
-20 7 3 -5 -2 -24 -12 -40 -23 -40 -84 -58 -128 -39 -43 18 -105 17 -116 -4
-12 -21 -76 -34 -92 -18 -9 9 -6 17 13 31 14 11 33 20 43 20 11 0 17 5 14 13
-2 6 -10 11 -17 9 -23 -5 -48 9 -53 29 -8 30 -48 21 -66 -15 -12 -25 -12 -30
3 -38 25 -14 19 -31 -9 -24 -21 5 -25 2 -33 -26 -7 -29 -13 -33 -38 -31 -47 4
-97 10 -136 18 -30 6 -38 5 -38 -7 0 -8 5 -19 11 -25 19 -19 0 -33 -46 -33
-37 0 -45 -4 -51 -22 -3 -13 -20 -35 -37 -49 l-31 -26 27 -26 c14 -15 33 -27
42 -27 15 0 15 -2 1 -15 -8 -8 -20 -15 -27 -15 -7 0 -27 -5 -45 -12 -45 -16
-84 1 -84 37 0 18 -5 25 -20 25 -11 0 -20 -4 -20 -10 0 -5 -9 -2 -20 7 -12 11
-20 30 -20 50 l0 32 -50 -6 c-32 -4 -50 -2 -50 5 0 6 5 12 12 14 7 3 9 14 5
30 -5 20 -12 25 -27 21 -13 -4 -20 0 -20 10 0 8 -7 18 -16 21 -22 8 -21 9 -43
-16 l-20 -21 -27 27 c-24 23 -26 29 -15 50 7 13 10 33 7 44 -5 15 -2 22 13 27
11 3 23 15 26 26 6 18 12 20 49 15 40 -6 43 -5 59 26 9 18 23 42 31 53 19 28
3 85 -24 85 -15 0 -20 -7 -20 -25 0 -39 -47 -25 -63 19 -5 13 -13 17 -30 11
-45 -13 -52 -11 -52 17 0 14 -3 30 -7 34 -17 17 -6 46 32 85 36 38 45 41 90
41 55 0 66 8 85 65 9 26 20 39 34 41 12 2 28 18 38 35 8 18 20 35 25 38 5 3
12 25 15 48 5 39 8 42 29 37 20 -5 24 -3 24 18 0 13 -7 27 -16 30 -8 3 -12 11
-9 17 5 7 15 3 29 -10 27 -26 56 -27 56 -3 0 9 3 27 6 39 5 18 0 25 -32 38
-43 18 -64 14 -71 -15 -3 -11 -12 -20 -19 -20 -17 0 -18 32 -2 48 9 9 -6 12
-69 12 -45 0 -85 -5 -88 -10 -4 -7 -12 -7 -25 0 -10 5 -50 10 -88 10 -66 0
-69 -1 -66 -22 3 -14 -6 -35 -21 -53 -23 -27 -26 -28 -41 -14 -15 15 -14 18
15 35 17 10 31 21 31 24 0 9 -53 30 -75 30 -18 0 -20 -6 -19 -37 1 -21 -3 -46
-8 -56 -8 -17 -10 -17 -33 0 -25 18 -33 43 -14 43 5 0 7 5 4 10 -4 6 -1 17 5
25 11 13 -53 15 -503 15 -484 0 -515 -1 -513 -17 1 -14 -7 -18 -29 -18 -23 0
-29 4 -27 18 3 16 -10 17 -146 17 -102 0 -152 -4 -160 -12 -9 -9 -12 -9 -12 0
0 8 -22 12 -69 12 -58 0 -70 -3 -74 -17 -4 -17 -5 -17 -6 0 -1 16 -24 17 -345
17 -266 0 -346 -3 -350 -12 -5 -10 -7 -10 -12 0 -4 9 -169 12 -774 12 l-768 0
-7 -22 -8 -23 -4 23 -4 22 -229 0 c-219 0 -230 -1 -240 -20 -6 -11 -16 -20
-23 -20 -7 0 -18 9 -25 20 -10 16 -23 20 -65 20 -29 0 -58 -5 -65 -12z m16261
-52 c44 -33 50 -62 12 -52 -32 8 -31 4 5 -32 19 -19 28 -36 24 -46 -9 -23 -29
-20 -48 8 -13 20 -22 24 -56 21 -23 -1 -43 -5 -46 -8 -11 -11 -34 6 -34 24 0
21 20 25 37 8 23 -23 22 35 -1 92 -12 28 64 18 107 -15z m-2015 7 c12 -3 31
-17 41 -32 38 -55 111 -199 111 -220 0 -11 4 -21 9 -21 21 0 49 -156 37 -205
-4 -17 -19 -31 -41 -41 -43 -17 -53 -34 -26 -41 37 -9 13 -21 -34 -15 -34 3
-45 1 -46 -9 -2 -30 -7 -65 -13 -84 -7 -19 -2 -20 56 -20 58 0 63 2 69 25 4
14 7 20 8 14 1 -15 53 -25 68 -13 8 7 13 4 18 -10 9 -31 -2 -41 -46 -41 -35 0
-39 -3 -39 -24 0 -25 -6 -29 -68 -41 -28 -6 -34 -4 -39 14 -7 27 -29 27 -43 1
-10 -19 -49 -28 -51 -12 -1 4 -4 18 -6 32 -6 36 -7 63 -2 80 2 9 -4 16 -16 17
-14 3 -25 -6 -37 -27 -19 -34 -59 -54 -70 -36 -4 6 -10 31 -14 56 -8 52 -19
70 -46 70 -24 0 -78 39 -78 57 0 7 -6 10 -14 7 -9 -3 -13 -16 -12 -32 2 -21 9
-28 30 -30 37 -5 32 -25 -13 -55 -27 -18 -40 -35 -45 -58 -3 -18 -13 -40 -22
-50 -14 -15 -18 -15 -45 -2 -30 15 -37 29 -18 35 13 4 21 68 9 68 -5 0 -10
-10 -12 -21 -3 -24 -14 -32 -74 -49 -45 -13 -63 -8 -111 33 -20 18 -23 27 -18
57 4 19 13 42 20 50 7 8 16 25 19 38 8 24 35 29 68 11 27 -14 40 5 27 39 -13
34 -4 42 51 42 40 0 52 4 68 25 11 14 42 34 68 46 27 11 53 27 57 35 12 21 51
17 73 -7 19 -21 18 -21 -5 -40 -18 -15 -20 -19 -6 -19 9 0 25 5 36 10 32 18
39 2 16 -39 -18 -33 -19 -41 -8 -55 32 -38 110 -2 98 46 -4 12 -1 29 6 37 10
12 8 13 -15 9 -26 -5 -28 -3 -28 27 0 18 -8 43 -18 56 -23 29 -44 88 -36 101
3 5 14 6 25 3 24 -8 25 16 3 50 -14 21 -14 28 -3 41 11 14 11 18 -4 29 -16 11
-14 13 13 18 26 6 29 10 24 35 -5 23 -1 30 18 39 12 7 30 9 38 6 8 -3 25 -8
38 -10z m6037 -44 c0 -19 5 -37 10 -42 6 -4 0 -16 -16 -30 -20 -19 -23 -26
-15 -40 14 -22 -11 -42 -31 -25 -10 8 -16 3 -24 -22 -11 -30 -14 -32 -48 -26
-43 7 -58 -1 -63 -34 -3 -14 -5 -4 -5 23 0 34 3 47 14 47 10 0 12 6 8 19 -4
13 0 23 12 30 15 8 16 12 4 23 -11 10 -14 10 -18 1 -5 -14 -35 -18 -46 -6 -4
3 1 12 11 19 16 13 15 14 -5 20 -13 3 -23 14 -23 23 0 11 3 12 8 4 4 -7 16
-12 27 -12 11 -1 37 -4 58 -7 30 -5 37 -10 37 -30 0 -12 -5 -26 -11 -30 -8 -4
-7 -10 1 -18 9 -8 14 -8 17 2 3 6 14 12 24 12 13 0 25 12 34 33 12 28 12 33
-2 44 -18 14 -8 34 13 26 13 -5 15 -1 9 17 -5 16 -4 21 6 18 8 -3 14 -19 14
-39z m-1857 -23 c11 -19 29 -39 39 -45 17 -9 19 -7 15 20 -4 30 -4 30 39 26
31 -3 45 -9 47 -21 3 -12 10 -15 23 -11 15 5 19 1 19 -19 0 -14 5 -28 10 -31
17 -11 11 -40 -12 -54 -19 -12 -23 -11 -38 9 -16 22 -18 22 -28 5 -6 -12 -7
-28 -1 -42 9 -23 -4 -33 -16 -13 -4 6 -24 22 -46 36 -27 16 -39 31 -39 47 0
32 -48 100 -66 93 -14 -5 -20 15 -7 27 16 16 43 4 61 -27z m-260 -23 c-3 -35
-1 -38 22 -35 14 2 31 11 38 20 11 15 15 14 37 -13 18 -22 24 -42 25 -76 0
-62 -18 -77 -87 -72 -42 2 -53 0 -53 -12 0 -8 -9 -15 -19 -15 -14 0 -21 -8
-23 -27 -3 -26 -3 -27 -22 -7 -18 17 -18 19 -3 22 18 4 22 14 10 25 -3 4 -12
2 -19 -4 -9 -8 -16 -5 -25 12 -10 19 -9 25 7 37 17 13 16 13 -13 7 -36 -7 -41
0 -17 26 8 9 18 39 22 65 7 45 10 49 44 59 20 5 40 13 44 18 20 20 35 6 32
-30z m-3383 -73 c3 -10 16 -29 29 -43 13 -14 26 -32 29 -39 4 -8 6 -7 6 5 1
20 5 21 34 5 12 -6 39 -13 61 -15 42 -3 61 -15 77 -45 7 -14 7 -24 -2 -35 -11
-13 -10 -18 6 -30 16 -11 20 -26 20 -78 0 -36 3 -65 7 -65 14 0 8 -48 -6 -53
-18 -7 -26 1 -26 25 0 22 -13 23 -45 2 -24 -16 -24 -44 1 -44 33 0 82 -36 88
-64 8 -37 -4 -155 -15 -162 -5 -3 -9 -16 -9 -29 0 -13 -5 -27 -11 -31 -8 -4
-8 -9 0 -17 19 -19 13 -82 -10 -112 -13 -16 -18 -30 -12 -33 20 -13 24 -63 8
-88 -9 -13 -15 -40 -13 -59 2 -40 5 -36 -50 -64 -39 -20 -44 -20 -71 -6 -17 8
-33 19 -36 25 -3 5 -22 10 -41 10 -19 0 -34 4 -34 8 0 5 -15 16 -34 24 -47 23
-53 67 -14 105 33 32 35 44 8 61 -23 14 -60 83 -60 112 0 11 7 37 15 57 14 33
14 38 -6 69 -15 25 -19 42 -14 71 12 68 15 73 45 73 16 0 32 5 35 10 5 8 11 8
20 0 10 -9 16 -6 25 10 8 14 17 19 30 15 29 -9 59 11 53 35 -5 20 11 28 22 10
9 -14 25 -12 25 3 0 7 -9 18 -20 25 -24 15 -26 45 -4 62 13 12 12 16 -10 35
-23 20 -24 24 -11 35 17 14 21 35 5 25 -6 -4 -6 3 0 21 12 32 12 32 -26 40
-23 4 -34 0 -58 -25 -31 -32 -32 -30 19 -46 17 -5 21 -45 5 -45 -5 0 -10 -9
-10 -20 0 -11 -5 -20 -11 -20 -6 0 -8 -9 -4 -20 10 -32 -4 -80 -24 -80 -9 0
-27 -7 -39 -16 -33 -23 -55 -12 -42 21 7 18 6 54 -4 118 -8 51 -17 131 -21
178 -7 96 3 117 49 105 14 -3 27 -2 31 4 8 13 33 1 40 -20z m2790 -140 c-4
-12 6 -25 34 -43 31 -21 41 -35 46 -64 4 -21 10 -47 15 -58 29 -68 13 -100
-42 -90 -27 5 -38 13 -40 28 -2 15 -12 23 -33 27 -28 5 -29 7 -31 65 -1 33 3
66 8 73 6 7 8 28 5 46 -4 22 -1 36 6 39 21 7 38 -5 32 -23z m1029 9 c-3 -6 4
-21 16 -34 12 -13 20 -29 18 -36 -3 -8 8 -24 24 -37 37 -31 35 -45 -7 -60 -45
-17 -69 -62 -48 -91 8 -12 10 -21 4 -21 -6 0 -11 -9 -11 -19 0 -28 -19 -36
-35 -15 -12 17 -11 20 6 28 23 11 24 22 3 34 -13 8 -14 13 -4 31 16 30 -15
138 -42 147 -21 6 -23 22 -4 46 26 35 100 59 80 27z m-15256 -11 c18 -16 15
-27 -19 -61 l-32 -31 22 -14 c11 -8 21 -25 21 -38 0 -14 8 -25 21 -29 40 -13
0 -22 -58 -14 -36 5 -62 4 -70 -2 -14 -13 -36 -2 -30 14 2 7 15 12 28 12 19 0
25 6 27 26 3 22 -3 29 -27 40 -17 8 -31 17 -31 20 0 10 48 39 64 39 12 0 14 7
9 31 -6 31 -6 31 28 24 19 -4 40 -12 47 -17z m13802 9 c30 -24 48 -74 59 -159
5 -49 15 -97 21 -107 5 -11 10 -42 10 -70 0 -27 5 -53 10 -56 16 -10 12 -81
-5 -95 -20 -16 -20 -60 0 -60 13 0 13 -3 3 -20 -7 -11 -22 -20 -34 -20 -12 0
-28 -7 -35 -16 -12 -15 -17 -12 -45 21 -26 32 -34 36 -51 27 -11 -6 -23 -9
-26 -5 -16 15 65 113 93 113 18 0 44 65 39 95 -4 16 -7 15 -35 -8 -23 -19 -34
-23 -42 -15 -8 8 -19 3 -40 -20 -22 -23 -32 -28 -40 -20 -17 17 -25 3 -24 -37
2 -46 -19 -46 -54 0 -37 49 -60 60 -87 42 -30 -19 -66 -27 -73 -16 -3 5 -10 9
-16 9 -7 0 -6 -5 1 -14 7 -8 8 -17 3 -20 -12 -7 -84 19 -96 36 -8 11 -18 13
-34 7 -23 -9 -52 -3 -52 11 0 4 8 18 19 31 13 16 30 23 62 25 37 1 45 6 49 25
8 32 33 35 58 9 19 -21 21 -21 46 -5 19 13 24 23 20 40 -4 18 -1 25 16 30 18
6 20 9 9 16 -23 15 -39 10 -39 -11 0 -11 -5 -20 -11 -20 -8 0 -9 11 -5 31 3
17 6 38 6 45 0 27 44 14 68 -19 15 -22 22 -27 22 -14 0 9 8 24 19 33 14 13 18
25 14 55 -5 33 -3 39 13 39 11 0 30 9 44 20 14 11 37 20 53 20 29 0 37 14 12
24 -8 3 -12 12 -9 21 7 18 62 20 84 2z m2598 -9 c18 -18 14 -56 -8 -75 -11
-10 -20 -25 -20 -35 0 -9 9 -20 20 -23 11 -3 20 -12 20 -20 0 -12 55 -27 65
-17 2 3 0 13 -5 22 -13 24 13 34 43 18 22 -12 28 -14 47 -17 15 -2 12 -28 -5
-55 -12 -19 -13 -25 -3 -33 16 -12 58 -11 77 1 8 5 30 10 49 12 20 1 39 10 44
18 13 23 55 20 63 -4 3 -11 4 -24 1 -28 -3 -5 4 -16 16 -26 15 -13 17 -21 9
-29 -15 -15 -41 1 -58 34 l-13 24 0 -27 c0 -15 -4 -30 -10 -33 -17 -11 -11
-42 11 -56 24 -17 17 -49 -12 -49 -14 0 -19 7 -19 30 0 30 -14 41 -23 18 -3
-7 -3 2 0 20 3 17 2 32 -1 32 -13 0 -47 -21 -68 -42 -23 -23 -17 -58 6 -39 11
10 18 6 32 -18 10 -17 22 -31 26 -31 4 0 8 -7 8 -15 0 -8 -4 -15 -10 -15 -5 0
-10 5 -10 10 0 6 -10 10 -22 10 -41 1 -61 25 -56 67 4 33 1 42 -30 71 -30 28
-37 31 -44 18 -10 -19 -39 -10 -31 10 3 8 -1 14 -11 14 -18 0 -22 -25 -6 -35
6 -4 8 -16 5 -27 -8 -23 20 -58 47 -58 23 0 24 -35 2 -78 -13 -27 -19 -30 -34
-22 -26 14 -35 31 -20 40 9 6 7 10 -9 15 -17 5 -19 10 -11 25 16 30 12 50 -10
50 -11 0 -20 -6 -20 -13 0 -7 -13 -26 -28 -43 -22 -24 -26 -33 -15 -40 8 -6
10 -14 4 -22 -6 -11 -14 -8 -36 13 -18 19 -23 30 -15 35 8 5 4 9 -11 13 -27 7
-42 0 -32 -16 4 -6 6 -28 4 -48 -2 -25 5 -47 23 -74 l26 -38 -26 -24 c-21 -19
-33 -23 -68 -18 -54 6 -66 -12 -69 -110 -1 -53 -5 -69 -16 -67 -7 2 -20 -7
-29 -19 -16 -23 -70 -49 -102 -49 -17 0 -19 4 -14 27 l7 27 -26 -17 c-31 -20
-32 -20 -49 -4 -35 32 -55 36 -102 22 l-46 -14 -20 39 c-18 35 -18 40 -4 54 8
9 22 16 30 16 16 0 17 4 14 75 -1 28 2 46 7 42 8 -9 10 -14 12 -44 1 -13 4
-14 13 -5 9 9 16 8 30 -5 15 -13 21 -14 31 -4 9 10 8 15 -6 26 -16 12 -15 14
14 24 43 15 62 14 56 -3 -3 -8 0 -22 7 -31 10 -14 17 -15 33 -7 11 6 41 10 66
8 44 -2 59 8 40 27 -3 4 -7 18 -8 31 0 18 8 28 32 40 29 14 33 20 33 56 0 22
5 40 10 40 6 0 10 -17 10 -39 0 -35 3 -39 30 -43 30 -5 30 -4 24 31 -4 20 -11
38 -15 39 -5 2 -6 8 -3 14 4 6 1 43 -6 84 -13 72 -13 73 -40 67 -22 -4 -29 -1
-35 16 -9 28 -45 28 -45 0 0 -11 -4 -17 -10 -14 -6 4 -17 1 -25 -5 -8 -7 -26
-9 -44 -5 -31 7 -71 -11 -71 -31 0 -6 -7 -17 -15 -24 -12 -10 -15 -10 -15 4 0
9 4 16 8 16 4 0 9 26 10 57 2 51 12 72 35 73 4 0 7 -9 7 -20 0 -13 7 -20 20
-20 26 0 25 8 -5 36 -27 25 -34 64 -11 64 8 0 17 -6 19 -12 4 -9 8 -10 14 -2
4 6 29 14 55 17 37 5 47 3 52 -10 5 -11 14 -14 36 -9 35 6 44 -18 10 -29 -23
-7 -27 -40 -5 -49 9 -3 19 3 26 16 9 17 18 20 55 15 33 -3 44 -1 44 9 0 8 5
14 10 14 19 0 23 31 6 43 -25 18 -38 73 -20 88 8 6 14 17 14 25 0 16 38 44 60
44 9 0 21 -5 28 -12z m-19538 -9 c0 -7 11 -9 26 -6 19 3 27 -1 34 -17 4 -12
24 -30 44 -41 30 -17 40 -18 69 -7 43 15 67 15 67 0 0 -7 13 -21 28 -32 35
-23 56 -64 41 -82 -6 -7 -17 -10 -25 -7 -9 3 -40 -3 -69 -13 -51 -17 -86 -13
-55 6 28 17 -14 22 -53 5 -52 -22 -64 -19 -76 17 -9 25 -8 35 4 48 19 21 19
46 0 54 -8 3 -15 15 -15 26 0 13 -10 24 -25 30 -27 10 -34 30 -10 30 8 0 15
-5 15 -11z m17167 -88 c3 -13 11 -18 21 -14 14 4 15 3 2 -5 -12 -9 -12 -21 -2
-82 7 -39 12 -95 12 -125 0 -48 -3 -55 -20 -55 -14 0 -22 10 -29 38 -18 71
-33 200 -26 231 7 35 34 42 42 12z m-13029 -43 c-6 -18 -17 -40 -25 -50 -10
-11 -11 -18 -4 -23 18 -11 12 -24 -19 -40 -32 -17 -42 -55 -14 -55 16 0 63 42
80 71 5 9 27 19 49 22 35 5 42 3 58 -19 17 -23 17 -27 4 -42 -9 -9 -19 -30
-22 -47 -4 -16 -17 -38 -29 -47 -17 -15 -18 -20 -7 -27 7 -5 11 -14 7 -19 -10
-17 -36 -2 -36 21 0 40 -28 57 -96 57 -35 0 -65 -4 -68 -9 -3 -5 8 -26 25 -47
28 -35 29 -39 12 -45 -26 -11 -106 -10 -123 1 -12 8 -12 10 3 16 21 8 22 33 2
40 -21 9 -19 41 4 54 27 14 34 13 28 -5 -4 -8 -2 -17 3 -20 6 -4 10 0 10 9 0
8 3 22 6 31 5 12 2 16 -12 15 -34 -4 -44 0 -44 16 0 22 29 43 58 44 12 0 22 4
22 9 0 5 9 13 20 16 18 6 18 8 5 21 -21 22 -19 35 13 61 17 14 41 22 64 23
l37 0 -11 -32z m11205 -78 c6 -22 36 -27 54 -9 7 7 12 6 16 -5 3 -8 -1 -17 -9
-20 -12 -5 -12 -9 -2 -26 7 -11 21 -20 30 -20 15 0 18 -10 18 -64 0 -35 3 -76
6 -92 5 -24 1 -32 -24 -46 -42 -25 -55 -23 -76 12 -13 23 -15 34 -7 44 9 11 6
15 -12 20 -17 4 -27 15 -32 38 -6 31 -7 32 -15 11 -15 -36 -54 -29 -105 18
-38 35 -50 41 -77 36 -72 -10 -92 37 -32 74 41 25 69 17 69 -19 0 -30 15 -40
30 -19 8 11 23 17 41 15 73 -5 124 2 124 17 0 18 -17 20 -23 3 -3 -10 -8 -10
-17 -2 -9 9 -9 17 -1 33 15 27 37 27 44 1z m-12335 -97 c12 -11 28 -14 63 -10
38 5 53 2 72 -13 26 -21 60 -18 90 9 16 13 19 13 27 1 15 -24 12 -27 -34 -41
-44 -13 -70 -42 -71 -79 0 -8 -14 -22 -32 -30 -17 -8 -34 -22 -36 -31 -3 -12
-13 -15 -48 -10 l-44 6 -5 50 c-4 43 -8 50 -28 53 -13 2 -28 -1 -35 -6 -7 -6
-28 -7 -52 -2 -22 4 -34 8 -27 9 6 0 12 9 12 19 0 9 5 33 10 52 10 34 11 35
66 37 40 1 62 -3 72 -14z m12070 -72 c13 -7 27 -24 33 -38 l10 -26 22 22 c13
11 32 20 43 20 16 -1 17 -2 2 -6 -12 -3 -18 -14 -18 -34 0 -33 -25 -89 -40
-89 -5 0 -12 -11 -16 -25 -7 -30 -8 -30 -43 -4 -27 20 -30 20 -54 5 -23 -15
-25 -15 -31 -1 -9 24 -7 94 5 145 11 52 37 79 54 57 5 -8 20 -19 33 -26z
m2890 -90 c8 -4 13 -17 11 -27 -3 -20 20 -74 31 -74 3 0 12 -15 18 -34 15 -41
41 -55 49 -26 4 14 14 20 32 20 16 0 31 8 39 21 19 30 56 22 60 -14 3 -27 2
-29 -27 -22 -17 3 -40 4 -51 0 -26 -8 -26 -41 1 -48 12 -3 18 -10 15 -16 -4
-6 -17 -6 -38 1 -25 9 -32 8 -40 -5 -5 -9 -18 -22 -30 -28 -20 -11 -21 -9 -15
20 4 19 2 40 -6 51 -12 21 -37 27 -37 10 0 -19 -27 -10 -38 13 -6 12 -13 55
-16 95 -5 63 -3 72 12 72 9 0 23 -4 30 -9z m-1591 -142 c-10 -17 -9 -23 13
-39 14 -11 35 -20 47 -20 36 0 153 -69 146 -86 -8 -22 -29 -17 -47 11 -13 20
-25 25 -57 25 -36 0 -40 -2 -29 -15 7 -8 19 -15 26 -15 19 0 18 -36 -1 -44 -9
-3 -23 3 -32 14 -23 26 -43 26 -36 0 7 -27 -3 -25 -33 5 -29 29 -46 32 -43 8
2 -10 -3 -29 -10 -42 -11 -19 -11 -25 0 -32 8 -5 23 -8 34 -6 25 3 44 -56 27
-84 -7 -10 -12 -35 -12 -55 0 -27 5 -37 20 -41 25 -7 26 -20 1 -28 -17 -5 -19
-16 -19 -76 0 -73 -11 -99 -43 -99 -17 0 -17 -3 -7 -20 10 -15 10 -22 0 -32
-9 -9 -12 -7 -12 10 0 26 -33 47 -47 29 -6 -6 -13 -20 -17 -31 -6 -17 -8 -17
-29 -3 -12 8 -23 24 -25 35 -2 12 -12 24 -23 27 -17 6 -19 14 -16 48 3 32 9
43 23 46 53 9 63 52 24 96 -10 11 -20 31 -22 45 -2 19 -8 24 -25 22 -15 -2
-23 2 -23 12 0 22 19 30 36 15 12 -10 13 -9 8 5 -4 11 1 18 16 24 22 8 22 9
-9 21 -22 10 -31 20 -31 36 0 27 -25 52 -35 35 -4 -6 -20 -8 -41 -4 -32 6 -34
4 -34 -20 0 -19 7 -29 25 -36 16 -6 25 -17 25 -32 0 -13 12 -34 25 -47 14 -13
25 -33 25 -46 0 -15 7 -25 21 -28 30 -8 24 -71 -8 -75 -16 -2 -22 -9 -20 -25
2 -17 -4 -23 -25 -25 -16 -2 -28 -1 -28 1 0 14 28 56 33 50 4 -3 7 -1 7 5 0 6
-8 16 -19 21 -10 6 -22 22 -25 36 -7 28 -21 33 -30 9 -3 -8 -11 -12 -17 -9 -5
4 -17 -1 -24 -11 -12 -16 -17 -17 -34 -6 -18 11 -21 10 -21 -7 0 -13 9 -21 30
-26 54 -12 48 -48 -6 -37 -15 3 -32 -2 -43 -12 -20 -18 -46 -13 -55 10 -5 12
-10 13 -27 4 -16 -9 -24 -8 -37 3 -9 9 -30 19 -45 23 -16 3 -33 17 -39 29 -6
13 -18 25 -27 28 -13 3 -16 12 -13 40 3 28 0 36 -16 41 -11 4 -24 6 -28 5 -5
-1 -24 -1 -41 0 -40 1 -43 20 -8 57 l25 27 41 -21 c23 -12 47 -22 54 -22 8 0
18 -7 23 -16 7 -13 17 -15 43 -10 19 4 42 7 51 7 39 1 25 18 -21 24 -38 5 -51
12 -59 31 -10 20 -8 25 8 34 26 14 30 13 39 -12 6 -17 17 -22 48 -24 61 -3 83
-13 94 -42 l11 -27 14 34 c18 42 18 52 0 45 -7 -3 -16 1 -19 9 -3 8 -17 15
-32 15 -38 0 -48 14 -34 46 10 22 10 32 0 47 -6 11 -9 29 -6 40 5 15 2 19 -14
19 -12 0 -21 5 -21 10 0 6 13 10 29 10 28 0 34 -7 55 -72 7 -23 35 -23 43 -2
3 9 1 25 -5 35 -17 27 -15 39 8 39 23 0 24 3 8 30 -7 10 -10 21 -8 23 3 2 31
7 63 11 47 5 57 4 57 -9 0 -9 -9 -15 -22 -15 -13 0 -34 -9 -47 -19 l-23 -18
24 -19 c14 -11 23 -24 21 -30 -6 -17 26 -25 49 -13 17 9 19 17 14 49 -5 32 -2
40 17 53 19 12 26 12 40 2 9 -7 17 -17 17 -22 0 -21 29 -36 44 -24 9 7 29 9
55 5 41 -7 42 -6 36 18 -5 21 -1 29 27 45 39 23 53 20 35 -8z m2151 -35 c18
-8 36 -23 41 -32 9 -15 13 -13 42 16 17 17 37 32 44 32 8 0 21 -22 30 -50 11
-34 22 -50 34 -50 10 0 22 -13 29 -35 13 -35 57 -65 94 -65 29 0 16 -24 -15
-28 -25 -3 -40 -32 -16 -32 6 0 9 -6 6 -12 -2 -7 4 -23 15 -35 16 -17 18 -25
8 -43 -12 -23 -34 -22 -36 1 -2 26 -23 69 -35 69 -11 0 -9 -30 6 -77 l7 -22
-40 19 c-23 11 -46 20 -52 20 -22 0 -8 19 19 25 34 7 47 30 24 40 -13 4 -14 8
-5 17 17 17 15 41 -2 35 -7 -3 -18 -1 -24 5 -6 6 -23 12 -37 14 -24 2 -25 0
-23 -38 4 -55 -15 -67 -79 -50 -57 16 -59 18 -44 35 9 11 8 17 -4 27 -8 7 -15
26 -15 41 0 22 -6 32 -25 39 -14 5 -25 12 -25 14 0 8 21 110 25 124 6 16 15
15 53 -4z m-14251 -54 c10 -11 30 -20 45 -20 18 0 28 -5 28 -15 0 -17 39 -35
73 -34 12 0 16 3 10 6 -18 7 -16 23 2 23 8 0 15 -6 15 -14 0 -8 11 -17 25 -20
36 -9 35 -46 -2 -46 -43 0 -143 -33 -143 -48 0 -10 5 -10 20 -2 15 8 24 6 39
-9 11 -11 23 -16 26 -11 4 6 22 10 41 10 23 0 38 6 46 20 16 26 50 26 74 -1
22 -24 10 -52 -25 -57 -22 -3 -38 -42 -26 -61 3 -6 -1 -11 -9 -11 -9 0 -16 4
-16 9 0 5 -9 11 -20 14 -16 4 -20 0 -20 -17 0 -31 -10 -38 -28 -20 -8 8 -26
14 -41 12 -35 -3 -51 8 -51 39 0 16 -7 27 -20 30 -11 3 -20 9 -20 14 0 5 -9 9
-19 9 -28 0 -32 22 -9 47 l20 21 -30 16 c-20 10 -32 12 -40 4 -7 -7 -22 -5
-51 8 -44 19 -52 37 -23 53 21 11 52 -3 52 -24 0 -18 24 -19 38 -2 7 8 7 18 2
27 -6 8 -10 27 -10 43 0 33 22 36 47 7z m1766 -264 c-4 -19 0 -24 25 -29 20
-4 33 -15 42 -36 10 -24 19 -31 41 -31 31 0 45 -25 34 -60 -9 -30 -60 -27 -80
4 -9 14 -29 29 -44 34 -15 6 -44 24 -63 41 -20 17 -41 31 -46 31 -6 0 -16 9
-22 19 -11 21 -14 38 -4 28 3 -3 22 1 42 8 59 22 80 19 75 -9z m-1259 -41 c22
-33 20 -46 -12 -72 -27 -20 -55 -26 -114 -24 -33 1 -40 36 -9 44 14 3 17 11
14 31 -4 20 0 28 18 35 45 18 85 13 103 -14z m-202 -97 c8 -24 -4 -57 -23 -63
-16 -5 -19 -14 -15 -48 3 -23 8 -54 11 -69 6 -22 1 -32 -26 -56 l-34 -30 66 5
c46 4 69 2 74 -7 10 -16 -10 -34 -38 -36 -12 0 -43 -21 -69 -45 -99 -94 -118
-109 -138 -109 -11 0 -23 -7 -26 -15 -4 -8 -12 -15 -20 -15 -8 0 -14 7 -14 15
0 8 6 15 14 15 26 0 29 21 6 42 -21 20 -21 20 -2 42 15 16 42 75 42 92 0 1
-15 0 -32 -3 -24 -3 -39 1 -57 16 -30 26 -54 26 -110 1 -24 -11 -47 -20 -51
-20 -4 0 -10 16 -13 36 -3 20 -17 46 -32 59 -26 25 -33 67 -15 95 8 12 11 12
27 -2 13 -12 30 -15 66 -11 36 4 47 2 47 -9 0 -10 19 -14 78 -16 42 -1 85 -5
95 -8 11 -3 17 0 17 10 0 9 -8 16 -17 16 -15 1 -15 3 5 19 12 11 22 30 22 44
0 26 24 52 55 60 41 10 103 7 107 -5z m366 -305 c22 -17 25 -23 14 -34 -9 -10
-19 -11 -41 -2 -40 15 -51 -10 -15 -34 l26 -17 -41 -12 c-24 -7 -67 -10 -99
-7 -52 5 -61 3 -89 -21 -24 -20 -42 -26 -81 -26 -28 0 -54 5 -57 11 -8 12 24
51 36 43 5 -3 18 -2 30 1 18 6 20 12 14 45 -7 44 11 61 55 54 14 -3 36 1 50 9
15 7 55 12 98 12 57 -1 79 -6 100 -22z m6691 -230 c19 -11 31 -26 31 -39 0
-26 24 -48 45 -40 9 3 15 0 15 -8 0 -10 -10 -11 -42 -5 -84 16 -98 6 -56 -38
21 -22 21 -23 2 -23 -11 0 -29 6 -40 14 -11 9 -29 12 -43 9 -21 -5 -23 -3 -18
19 5 20 3 27 -13 31 -22 6 -28 37 -7 37 7 0 23 -11 35 -25 23 -26 42 -26 42 0
0 8 -9 19 -20 25 -26 14 -17 30 16 30 25 0 33 15 12 23 -9 4 -9 6 -1 6 6 1 25
-7 42 -16z m-1943 -18 c9 -23 63 -45 110 -45 25 0 46 -6 51 -13 4 -7 24 -13
43 -13 29 1 36 -3 38 -23 2 -13 12 -33 23 -44 28 -30 19 -42 -32 -43 -24 -1
-48 -2 -54 -4 -23 -6 -34 2 -40 30 -4 17 -13 30 -20 30 -21 0 -45 29 -39 45 8
20 -20 20 -36 0 -11 -13 -16 -14 -34 -2 -12 8 -38 19 -58 26 -21 7 -38 15 -38
19 0 3 10 16 22 29 24 26 56 30 64 8z m-5237 -59 c9 -11 3 -16 -33 -25 -25 -6
-52 -8 -60 -5 -9 3 -16 1 -16 -5 0 -6 -10 -11 -22 -11 -12 0 -32 -10 -46 -22
-18 -18 -34 -23 -70 -21 -63 3 -114 -6 -107 -18 7 -11 -33 -48 -52 -49 -7 0
-13 -7 -13 -15 0 -8 -9 -15 -20 -15 -23 0 -27 18 -6 26 8 3 18 19 21 36 4 16
14 32 23 35 10 4 31 22 47 41 l31 35 112 2 c70 1 117 6 124 13 16 16 73 15 87
-2z m5331 -138 c0 -10 3 -18 8 -18 4 0 23 -14 42 -30 41 -35 46 -36 53 -10 6
24 39 27 57 5 7 -8 21 -15 31 -15 10 0 26 -11 35 -25 13 -20 22 -24 43 -19 25
6 25 6 9 -11 -15 -16 -22 -17 -70 -5 -29 6 -71 13 -93 14 -60 4 -61 4 -94 32
-24 19 -31 34 -31 60 0 32 -2 34 -35 34 -32 0 -46 15 -29 33 11 11 74 -28 74
-45z m-4923 -58 c18 -16 38 -30 43 -30 6 0 10 -6 10 -14 0 -7 7 -19 15 -26 20
-16 19 -46 -1 -54 -28 -11 -34 -7 -34 24 0 17 -5 30 -10 30 -6 0 -10 -6 -9
-12 6 -52 -14 -49 -46 6 -30 52 -56 53 -52 2 2 -25 -2 -32 -20 -34 -17 -3 -23
2 -23 17 0 11 -9 22 -21 26 -21 7 -21 7 -1 28 10 12 22 30 25 39 5 14 23 21
76 27 7 0 29 -12 48 -29z m3285 -62 c24 -9 26 -13 17 -36 -8 -21 -7 -29 7 -39
10 -7 21 -13 26 -13 14 0 9 -37 -8 -51 -17 -14 -29 -3 -40 39 -8 30 -49 39
-84 18 -50 -29 -85 -11 -52 26 12 15 12 20 2 33 -32 38 53 53 132 23z m-5722
-60 c0 -7 15 -38 34 -70 30 -49 33 -58 21 -75 -20 -29 -126 -25 -158 5 -13 12
-26 20 -29 17 -3 -3 -17 0 -31 6 -34 16 -22 41 30 62 21 8 52 27 68 41 32 27
65 34 65 14z m4993 -472 c3 -7 23 -16 44 -19 21 -4 61 -11 88 -18 28 -6 62
-11 78 -10 16 0 27 -6 27 -14 0 -14 21 -25 51 -25 11 0 30 -7 43 -15 13 -9 28
-14 34 -13 16 5 98 -86 106 -116 4 -15 18 -32 31 -38 26 -12 34 -38 12 -38 -7
0 -18 5 -25 12 -9 9 -12 7 -12 -11 0 -16 4 -21 15 -17 10 4 15 -1 15 -14 0
-11 -6 -20 -14 -20 -17 0 -32 -76 -22 -114 4 -15 0 -32 -12 -46 -20 -25 -120
-41 -252 -40 -41 0 -163 -2 -271 -5 -198 -6 -244 -1 -255 30 -3 8 2 22 11 31
10 10 15 27 12 41 -2 12 -1 23 4 23 4 0 11 16 15 35 8 43 18 51 76 59 51 8 60
15 78 67 12 33 11 39 -14 75 -21 31 -23 40 -12 42 8 2 18 12 21 22 3 10 15 22
25 25 11 3 20 17 22 33 2 17 12 31 26 37 13 6 25 20 29 33 6 25 18 29 26 8z
m8589 -262 c23 -19 58 -51 76 -72 29 -31 33 -41 27 -70 -4 -20 -2 -39 6 -48
10 -12 7 -20 -16 -44 -28 -29 -28 -29 -11 -64 13 -27 23 -36 42 -36 33 0 29
-32 -5 -40 -15 -3 -27 -17 -35 -40 -23 -66 -41 -94 -75 -117 -19 -13 -39 -22
-45 -20 -14 5 -34 66 -35 109 -1 53 -17 87 -45 97 -24 10 -46 55 -46 97 0 14
-14 34 -40 54 -22 17 -43 43 -46 56 -3 13 -10 25 -15 25 -5 1 -13 3 -19 4 -5
1 -14 3 -20 4 -20 2 -10 19 15 25 14 4 25 11 25 16 0 10 52 40 71 40 6 0 9 -6
6 -14 -3 -8 1 -17 8 -20 9 -3 28 14 50 44 45 61 67 63 127 14z m1103 -74 c19
-16 94 -18 107 -3 15 18 88 8 145 -20 41 -20 43 -20 63 -2 19 18 20 18 20 -3
0 -12 -5 -22 -11 -22 -5 0 -7 -4 -4 -10 3 -5 19 -10 35 -10 35 0 45 -13 25
-30 -8 -7 -15 -21 -15 -33 0 -17 -5 -19 -40 -14 -36 5 -43 2 -70 -29 -16 -19
-30 -42 -30 -50 0 -19 -52 -114 -62 -114 -11 0 -10 7 4 30 9 14 9 24 1 42 -7
13 -17 41 -24 63 -20 62 -42 88 -99 117 -43 22 -56 25 -69 15 -25 -18 -19 -63
13 -96 15 -16 31 -44 36 -62 5 -19 12 -44 15 -56 7 -21 4 -23 -28 -23 -30 0
-34 -3 -30 -19 3 -12 -5 -33 -21 -54 -14 -19 -26 -41 -26 -50 0 -48 -74 14
-91 75 -6 25 -7 59 -2 91 7 47 11 52 41 61 45 13 64 44 60 97 -3 40 -6 44 -37
52 -44 11 -66 37 -45 53 17 13 124 16 139 4z m-2835 -126 c0 -12 -7 -25 -15
-28 -12 -4 -13 -10 -6 -24 13 -24 -4 -42 -40 -42 -32 0 -48 29 -25 46 22 16
21 38 -1 28 -10 -5 -89 -10 -176 -12 -140 -3 -158 -2 -163 13 -12 29 16 35
168 35 94 0 149 4 154 11 3 6 17 8 31 4 20 -5 26 -1 30 16 l6 22 18 -24 c10
-13 19 -34 19 -45z m72 18 c-18 -6 -14 -40 7 -61 15 -15 33 -19 81 -19 67 0
75 -3 66 -27 -5 -13 -16 -15 -63 -10 -33 4 -69 2 -83 -4 -17 -6 -20 -10 -8
-10 25 -1 38 -33 31 -75 -4 -26 -11 -36 -24 -36 -11 0 -19 -5 -19 -10 0 -15
42 -29 97 -32 66 -4 70 -22 6 -28 -67 -6 -59 -27 12 -32 44 -3 50 -6 53 -26 4
-29 -18 -55 -70 -82 -56 -29 -105 -27 -120 5 -6 14 -15 25 -20 25 -5 0 -13
-11 -18 -25 -5 -14 -17 -26 -27 -26 -115 -10 -1133 -36 -1321 -35 -193 2 -194
2 -213 26 -29 39 -25 65 13 76 26 8 34 16 38 39 5 29 7 30 70 32 192 4 422 3
431 -3 6 -3 14 -17 19 -30 9 -22 15 -24 72 -24 85 0 138 10 138 25 0 21 21 32
94 52 l69 18 15 -23 c11 -17 24 -22 58 -22 34 0 44 -4 49 -20 8 -27 23 -25 47
5 11 14 30 25 42 25 13 0 31 9 41 20 17 18 31 20 172 20 l153 0 0 -24 c0 -17
7 -26 26 -30 32 -8 32 -8 39 35 3 19 8 49 12 67 5 18 5 74 2 125 -6 99 3 139
29 129 11 -4 12 -7 4 -10z m-8312 -88 c123 -3 230 -9 237 -12 8 -5 9 -12 3
-21 -7 -12 -20 -13 -77 -4 -37 6 -169 12 -293 13 -124 0 -263 5 -310 9 -47 5
-94 8 -105 8 -83 -3 -165 4 -160 13 7 11 108 10 705 -6z m12743 0 c254 -15 35
-44 -333 -45 -268 0 -360 5 -360 22 0 4 7 15 16 24 15 15 46 16 288 11 149 -3
324 -8 389 -12z m777 -2 c173 -3 338 -5 365 -4 121 5 210 1 219 -8 11 -11 -49
-15 -168 -12 -38 1 -74 -2 -80 -6 -19 -15 -715 -8 -758 7 -21 7 -38 16 -38 20
0 19 19 23 80 16 36 -3 207 -9 380 -13z m-10295 -79 c2 -7 18 -13 35 -13 18 0
30 -5 30 -13 0 -23 -13 -28 -30 -12 -13 12 -36 15 -91 13 -69 -3 -74 -5 -77
-26 -2 -13 1 -29 7 -36 9 -10 -3 -14 -57 -19 -37 -3 -72 -6 -77 -7 -6 -1 -40
-2 -77 -1 -66 1 -68 2 -68 27 0 23 1 24 16 10 25 -26 44 -20 44 13 0 16 4 41
9 55 l10 25 160 -2 c119 -1 162 -5 166 -14z m1068 -13 c43 -11 50 -10 61 6 11
15 19 16 56 6 30 -7 60 -8 96 -1 42 8 63 7 99 -6 53 -17 108 -19 136 -5 13 8
25 7 39 0 11 -6 69 -13 129 -17 61 -3 108 -10 105 -15 -3 -4 -14 -8 -25 -8
-29 0 -23 -18 8 -22 16 -2 29 -10 31 -19 2 -14 -28 -17 -250 -28 -280 -13
-745 -21 -795 -13 -23 3 -33 10 -33 22 0 20 26 34 36 19 8 -13 272 -5 286 9 8
8 18 6 34 -5 18 -11 45 -14 118 -11 99 3 112 7 103 33 -5 12 -29 15 -140 15
-174 0 -195 4 -189 37 4 19 9 24 26 20 11 -3 43 -11 69 -17z m4508 -61 c4 -8
10 -22 13 -31 9 -29 154 -23 236 9 25 10 144 10 163 1 9 -5 17 -16 17 -25 0
-13 -8 -14 -50 -9 -34 5 -60 2 -86 -9 -25 -10 -71 -15 -150 -15 -64 0 -115 -4
-119 -10 -4 -6 6 -10 22 -10 164 -2 391 -14 401 -22 15 -13 15 -35 1 -76 -13
-37 -57 -48 -137 -33 -40 8 -61 8 -85 -2 l-32 -14 36 -12 c26 -8 49 -9 79 -2
56 12 137 -10 149 -42 5 -12 5 -26 1 -31 -5 -4 -199 -10 -432 -12 -746 -7
-2574 -8 -2585 -1 -6 4 -79 7 -162 8 -83 1 -154 5 -157 10 -9 15 69 22 135 13
52 -8 223 -4 286 6 6 1 143 -1 305 -4 453 -9 860 -7 1133 5 137 6 259 8 272 5
13 -3 46 -2 73 4 29 5 63 6 80 0 17 -4 60 -5 96 0 53 6 70 13 89 35 14 17 33
28 50 28 15 0 30 3 33 8 3 5 12 9 21 9 13 0 13 -2 2 -17 -13 -15 -9 -16 54 -9
41 4 75 3 87 -4 31 -16 98 -2 106 24 4 11 15 32 25 46 24 33 34 154 13 171 -8
6 -14 16 -14 21 0 14 22 5 31 -13z m-1280 -5 c5 -3 9 -12 9 -20 0 -11 -24 -14
-132 -14 -73 0 -247 -3 -385 -6 -272 -7 -294 -4 -272 38 11 20 16 21 391 14
209 -3 384 -9 389 -12z m-3671 -105 c168 -5 312 -10 320 -10 8 1 58 3 110 5
128 7 543 19 660 20 l95 1 1 -50 c1 -86 2 -85 -79 -85 -40 1 -94 0 -122 -1
-27 -1 -113 4 -190 10 -293 23 -478 28 -512 14 -25 -10 -87 -10 -315 -2 -155
6 -288 12 -295 14 -7 2 -19 21 -28 42 -15 34 -15 39 0 49 9 7 24 10 33 8 9 -2
154 -9 322 -15z m1550 4 c30 -9 64 -25 76 -35 35 -31 59 -21 29 12 -14 15 -14
19 -1 29 12 10 43 11 133 4 127 -9 322 -11 338 -2 6 3 154 5 330 5 l320 -1 2
-55 c1 -31 -5 -69 -13 -87 -17 -37 7 -34 -265 -37 -97 -1 -140 3 -151 12 -11
8 -23 9 -39 3 -13 -5 -34 -5 -46 0 -14 5 -34 4 -50 -2 -38 -14 -803 -15 -871
-1 -95 21 -106 30 -113 92 -3 30 -4 60 -2 66 7 20 256 17 323 -3z m8387 -2604
c15 -7 39 -11 52 -10 18 1 22 -3 16 -17 -17 -40 -16 -50 3 -56 10 -4 28 -23
38 -44 10 -20 29 -51 42 -68 12 -17 22 -36 22 -43 0 -6 14 -14 30 -18 26 -5
28 -7 15 -17 -26 -19 4 -50 48 -49 27 1 36 -4 40 -19 3 -11 10 -17 16 -13 7 4
8 0 5 -10 -4 -10 -14 -15 -25 -12 -20 5 -27 -17 -9 -28 6 -3 10 -18 10 -33 0
-26 -2 -25 -45 22 -25 27 -45 53 -45 58 0 5 -9 6 -21 3 -18 -6 -19 -5 -8 13
10 17 10 24 -2 38 -8 9 -13 25 -11 36 2 13 -3 18 -17 18 -12 0 -21 5 -21 10 0
6 -8 18 -18 28 -10 10 -23 31 -30 47 -7 17 -25 45 -41 63 l-29 32 -4 -25 c-3
-15 2 -32 13 -43 25 -28 30 -72 7 -72 -16 0 -58 41 -58 57 0 7 -5 22 -12 32
-11 18 -13 18 -25 3 -12 -16 -14 -16 -28 3 -8 11 -19 26 -25 33 -8 9 -6 12 10
12 11 0 20 -4 20 -10 0 -16 27 -11 34 6 3 9 6 28 6 43 0 24 7 41 16 41 1 0 15
-5 31 -11z"/>
<path d="M1532 4388 c-13 -13 -17 -200 -6 -256 7 -33 32 -46 67 -33 21 8 22
14 22 155 l0 146 -35 0 c-20 0 -41 -5 -48 -12z"/>
<path d="M1323 4382 c-8 -5 -13 -59 -15 -170 -4 -200 -5 -199 129 -117 2 1 4
68 5 148 l3 147 -55 0 c-30 0 -60 -4 -67 -8z"/>
<path d="M1110 4371 l-35 -6 -3 -128 -3 -127 26 -10 c36 -14 97 -12 116 3 14
10 18 37 20 145 l4 132 -45 -1 c-25 -1 -61 -4 -80 -8z"/>
<path d="M886 4345 c-13 -10 -25 -11 -43 -4 -14 5 -54 6 -89 3 l-64 -7 0 -38
0 -39 46 0 c32 0 44 -4 41 -12 -2 -7 -15 -13 -28 -14 -60 -2 -59 -1 -59 -60 0
-47 2 -55 14 -45 10 8 16 9 21 1 3 -5 19 -10 34 -10 31 0 51 -16 51 -41 0 -25
-15 -31 -71 -31 -51 0 -63 -6 -50 -26 5 -8 26 -9 71 -4 l65 7 8 55 c10 71 27
90 56 61 12 -12 27 -21 35 -21 8 0 16 -6 19 -12 3 -9 10 -7 21 7 16 21 21 60
17 140 -1 28 2 63 8 78 l11 27 -48 0 c-26 0 -55 -7 -66 -15z"/>
<path d="M18895 3681 c-63 -8 -75 -16 -75 -47 l0 -26 34 22 c33 20 56 14 41
-10 -10 -16 14 -50 37 -50 17 0 18 -3 8 -15 -29 -35 17 -60 60 -33 15 10 27
10 49 1 24 -9 33 -8 42 3 15 18 39 18 39 0 0 -11 23 -14 113 -13 61 0 120 -3
130 -7 12 -6 17 -4 17 8 0 14 4 15 21 6 22 -13 49 1 49 26 0 15 6 19 43 28 25
6 27 4 22 -17 -5 -18 -1 -26 21 -36 20 -9 29 -9 34 -1 4 7 18 17 31 24 19 9
24 19 22 46 -1 19 0 29 3 23 7 -15 34 -17 34 -3 0 6 -4 10 -10 10 -5 0 -10 7
-10 15 0 22 -31 31 -44 13 -13 -17 -83 -31 -91 -17 -4 5 -15 9 -25 9 -10 0
-20 6 -23 13 -3 9 -9 8 -23 -5 -14 -12 -24 -14 -34 -7 -8 5 -39 6 -68 3 -49
-6 -54 -5 -59 15 -7 28 -21 27 -25 -1 -2 -15 -11 -24 -26 -26 l-24 -4 22 22
c15 15 19 25 12 32 -16 16 -47 4 -45 -17 1 -11 -4 -23 -10 -27 -23 -15 -37 -8
-37 17 0 18 -6 25 -20 27 -11 0 -26 1 -32 2 -7 1 -12 -7 -12 -16 2 -24 -23
-23 -88 2 -29 11 -53 19 -53 19 0 -1 -22 -5 -50 -8z"/>
<path d="M19839 3663 l-11 -28 -11 23 c-12 26 -22 28 -31 7 -4 -10 -14 -13
-34 -9 -23 5 -33 1 -45 -17 -19 -26 -14 -39 16 -39 36 0 54 -16 41 -37 -16
-26 -43 -40 -52 -26 -12 19 -82 -7 -82 -31 0 -15 5 -17 28 -11 53 15 67 12 64
-12 -4 -27 10 -30 29 -7 11 13 25 15 70 10 36 -4 60 -3 64 4 3 5 17 10 29 10
26 0 51 24 41 39 -3 6 10 27 28 48 32 35 35 36 41 16 9 -28 32 -36 57 -20 17
10 22 9 34 -7 13 -18 15 -18 21 -2 5 12 14 16 30 12 17 -5 26 -1 34 14 23 42
60 12 60 -49 0 -26 -4 -31 -24 -31 -16 0 -27 7 -31 20 -6 19 -7 19 -33 2 -14
-9 -33 -16 -42 -14 -21 3 -42 -21 -35 -40 5 -11 17 -13 58 -8 56 8 90 -2 121
-33 18 -18 20 -18 31 -3 15 20 25 21 25 1 0 -8 5 -15 10 -15 6 0 10 6 10 13 0
8 9 22 20 32 11 10 20 25 20 33 0 11 8 13 34 9 19 -3 44 -3 55 0 26 7 28 33 2
33 -11 0 -21 9 -25 23 -11 42 -8 50 20 43 22 -6 25 -4 22 16 -3 24 -28 34 -56
23 -35 -15 -64 -11 -74 10 -8 17 -18 20 -67 20 -34 0 -65 -6 -74 -13 -9 -8
-21 -11 -26 -8 -5 4 -13 2 -16 -4 -4 -6 -15 -8 -25 -5 -10 3 -21 1 -25 -5 -9
-15 -31 -12 -49 6 -11 11 -25 14 -45 9 -17 -3 -32 -2 -36 4 -4 8 -12 8 -25 1
-10 -5 -29 -10 -42 -10 -13 0 -29 -5 -36 -12 -8 -8 -14 -5 -21 15 -13 35 -29
34 -42 0z"/>
<path d="M18704 3638 c-6 -20 -7 -21 -20 -4 -11 16 -13 13 -19 -28 -6 -36 -11
-46 -26 -46 -11 0 -19 -7 -19 -15 0 -8 -4 -15 -9 -15 -5 0 -11 7 -15 15 -3 8
-13 15 -23 15 -13 0 -14 3 -5 12 8 8 9 15 1 25 -15 18 -44 16 -63 -3 -23 -22
-20 -34 9 -34 14 0 34 -9 45 -20 13 -13 33 -20 60 -20 33 0 40 3 40 20 0 13 7
20 20 20 11 0 20 5 20 11 0 5 8 9 18 7 11 -2 26 3 35 11 18 14 17 14 30 -29 2
-8 6 2 8 22 7 58 -4 78 -45 78 -27 0 -36 -5 -42 -22z"/>
<path d="M15263 2307 c-36 -12 -43 -39 -20 -71 12 -17 14 -17 20 -2 4 9 10 16
14 16 13 0 33 -51 33 -83 0 -19 4 -27 13 -24 6 2 11 14 10 26 -5 37 14 60 47
59 17 -1 33 -5 36 -10 4 -5 15 4 25 22 15 24 17 35 9 50 -13 23 -50 27 -50 5
0 -22 -47 -19 -72 5 -12 11 -24 19 -27 19 -3 -1 -21 -7 -38 -12z"/>
<path d="M20185 2200 c-1 -3 -3 -22 -3 -43 -2 -47 -8 -57 -33 -57 -12 0 -19
-7 -19 -20 0 -25 -16 -26 -29 -2 -8 13 -12 14 -22 5 -10 -10 -9 -14 4 -19 10
-3 17 -18 18 -33 0 -25 0 -25 9 -3 12 27 30 29 37 2 3 -11 9 -20 15 -20 5 0 4
-9 -2 -20 -6 -11 -16 -17 -25 -14 -8 4 -15 1 -15 -5 0 -6 10 -11 23 -11 15 0
29 12 45 40 22 39 44 48 100 41 6 -1 12 2 12 6 1 4 11 21 24 36 21 27 24 27
40 12 10 -11 14 -25 10 -41 -3 -13 -1 -31 5 -38 9 -11 9 -15 -1 -20 -10 -5
-10 -7 0 -12 6 -3 12 -12 12 -19 0 -13 -27 -28 -38 -21 -4 2 -7 -7 -7 -20 0
-33 22 -38 41 -9 10 15 26 25 40 25 15 0 24 6 24 16 0 13 -3 14 -14 5 -9 -7
-17 -8 -20 -3 -3 6 1 12 9 16 8 3 15 11 15 18 0 8 14 19 30 25 28 11 30 15 30
63 0 62 -20 65 -35 4 -5 -21 -17 -48 -27 -58 -16 -18 -18 -18 -24 -2 -4 10 -2
27 4 39 20 43 22 58 7 63 -19 8 -20 24 -1 24 19 0 29 30 15 47 -7 8 -15 10
-18 6 -3 -5 -18 -16 -32 -25 -24 -15 -27 -15 -43 0 -14 14 -16 14 -16 1 0 -17
-26 -75 -44 -98 -9 -11 -12 -7 -17 20 -3 22 0 40 10 52 13 15 12 17 -12 17
-20 0 -27 5 -27 19 0 14 -7 19 -26 17 -14 0 -27 -3 -29 -6z"/>
<path d="M18516 2105 c-2 -7 2 -16 10 -19 20 -8 17 -23 -6 -29 -11 -3 -20 -13
-20 -23 0 -9 -7 -26 -17 -36 -9 -11 -11 -18 -5 -18 7 0 12 -8 12 -18 0 -11 8
-26 18 -36 18 -15 19 -15 30 9 6 14 18 25 26 25 8 0 16 8 19 18 3 14 6 12 17
-10 7 -16 20 -28 29 -28 14 1 14 2 -1 14 -15 11 -16 16 -4 31 15 21 46 14 46
-10 0 -23 20 -18 46 13 29 33 30 46 3 71 -12 11 -18 24 -14 30 3 6 1 11 -4 11
-6 0 -11 -8 -11 -18 0 -38 -50 -58 -68 -27 -13 25 -42 7 -42 -26 0 -19 -5 -29
-15 -29 -8 0 -14 8 -13 18 4 48 -3 90 -16 95 -8 3 -17 0 -20 -8z"/>
<path d="M470 2053 c0 -53 -13 -72 -40 -55 -12 7 -20 8 -20 2 0 -6 -11 -15
-25 -20 -27 -10 -25 -42 3 -38 9 2 18 -5 20 -14 2 -13 -3 -18 -20 -19 -13 0
-17 -3 -10 -6 6 -2 12 -16 12 -30 0 -21 2 -24 15 -13 12 10 15 10 15 0 0 -6
-10 -20 -22 -30 -22 -18 -22 -19 -4 -26 14 -5 24 -1 38 16 l20 24 17 -23 18
-23 20 28 c21 28 22 28 42 10 20 -18 21 -18 50 12 l30 29 6 -29 c5 -23 11 -28
26 -23 12 4 21 1 25 -10 6 -14 9 -13 20 7 25 44 28 52 16 56 -7 2 -12 17 -12
33 0 28 -2 29 -43 28 -37 -2 -46 -7 -65 -35 -12 -19 -22 -39 -22 -45 0 -6 -8
-9 -17 -7 -12 2 -21 20 -29 58 -7 30 -12 45 -13 32 -2 -38 -20 -65 -39 -56 -9
3 -27 6 -39 5 -14 0 -23 5 -23 14 0 11 7 14 24 9 32 -8 51 3 37 20 -8 9 -6 18
9 31 14 13 17 22 10 35 -7 13 -4 22 10 35 25 22 25 31 3 39 -10 3 -24 9 -30
12 -9 4 -13 -6 -13 -33z"/>
<path d="M190 2064 c0 -10 -6 -13 -19 -9 -14 4 -20 -1 -25 -17 -5 -18 -8 -20
-15 -9 -11 17 -41 7 -41 -13 0 -16 56 -76 71 -76 19 0 8 -29 -13 -33 l-23 -4
23 -8 c15 -5 21 -13 17 -24 -3 -9 1 -25 8 -35 12 -17 15 -17 29 -2 12 11 15
33 14 78 -1 57 -4 63 -24 66 -27 4 -28 13 -2 30 21 13 29 72 10 72 -5 0 -10
-7 -10 -16z"/>
<path d="M2705 2000 c-4 -11 -20 -23 -38 -28 -18 -5 -37 -19 -44 -31 -6 -13
-15 -26 -20 -30 -6 -3 -15 -15 -21 -26 -11 -20 -11 -20 -12 2 0 34 -15 35 -39
3 -28 -39 -68 -41 -77 -5 -3 14 -10 25 -15 25 -18 0 -8 30 17 54 17 15 24 29
19 36 -6 10 -10 10 -19 -2 -6 -8 -19 -17 -30 -21 -15 -6 -17 -14 -12 -51 5
-34 4 -45 -9 -49 -8 -4 -15 -16 -15 -27 0 -26 -7 -25 -30 2 -16 20 -21 21 -45
10 -14 -7 -31 -10 -36 -6 -16 9 -39 -16 -39 -42 0 -31 19 -30 48 1 19 20 28
23 43 15 20 -11 25 -35 9 -45 -5 -3 -10 -16 -10 -28 0 -19 3 -18 20 11 11 18
27 35 35 39 9 3 22 17 29 31 l13 25 7 -27 c4 -18 12 -26 23 -24 11 2 23 -8 31
-26 l15 -29 13 24 c7 14 24 30 38 37 21 9 27 9 35 -6 9 -15 10 -15 11 4 0 12
11 29 25 38 19 12 25 25 25 51 0 32 3 35 28 35 34 0 52 16 52 46 0 30 -17 40
-25 14z"/>
<path d="M3113 1843 c-7 -2 -13 -12 -13 -20 0 -11 -7 -14 -27 -9 -16 3 -22 3
-15 0 6 -3 12 -14 12 -25 0 -19 -1 -19 -26 -3 -25 17 -25 17 -18 -9 4 -17 2
-27 -5 -27 -6 0 -11 -7 -11 -15 0 -18 37 -20 42 -3 3 8 11 7 28 -5 33 -23 47
-21 54 7 3 14 16 26 29 30 13 3 29 16 35 30 9 20 7 27 -7 40 -17 15 -53 20
-78 9z"/>
<path d="M566 1500 c-17 -61 -13 -98 9 -80 6 5 14 7 18 4 6 -7 -13 -66 -24
-74 -4 -3 -1 -11 7 -18 12 -10 14 -10 14 2 0 8 11 16 26 18 20 2 29 12 41 43
27 74 27 79 -8 105 -18 14 -41 32 -50 41 -16 16 -18 13 -33 -41z"/>
<path d="M3452 1528 c-7 -7 -12 -22 -12 -34 0 -37 -11 -56 -25 -44 -9 8 -18
-2 -34 -41 -32 -78 -29 -89 22 -89 24 0 48 5 55 12 6 6 15 8 19 4 4 -4 1 -11
-6 -16 -8 -4 -11 -15 -8 -23 7 -19 -17 -29 -32 -14 -8 8 -11 4 -11 -15 0 -18
-7 -29 -20 -33 -28 -9 -25 -18 13 -35 28 -13 32 -19 29 -47 -2 -19 1 -33 7
-33 6 0 11 9 11 20 0 13 7 20 20 20 12 0 17 -5 14 -14 -7 -18 9 -28 30 -20 22
8 20 29 -4 62 -22 29 -19 62 6 62 7 0 18 -8 23 -17 9 -15 10 -13 11 14 0 17 5
35 10 38 6 3 19 25 30 48 16 31 17 43 8 49 -20 12 -36 9 -47 -9 -10 -16 -11
-16 -17 5 -6 22 -24 31 -24 12 0 -5 -6 -10 -13 -10 -19 0 -39 84 -27 115 6 15
10 31 10 36 0 13 -24 11 -38 -3z"/>
<path d="M12880 1500 c0 -11 5 -20 10 -20 6 0 10 -7 10 -15 0 -8 -4 -15 -8
-15 -13 0 -41 -55 -53 -106 -21 -91 -20 -110 11 -139 37 -35 58 -24 30 15 -24
34 -27 65 -5 56 11 -4 15 1 15 19 0 19 -5 25 -22 25 l-22 0 22 16 c12 8 22 21
22 28 0 7 9 23 20 36 16 19 22 20 35 10 10 -9 12 -17 5 -30 -11 -20 -4 -31 16
-23 15 5 19 -8 7 -21 -9 -8 -32 -96 -26 -96 3 0 16 9 30 20 25 19 53 27 53 14
0 -3 -20 -27 -45 -52 -25 -25 -45 -49 -45 -54 0 -5 -9 -6 -20 -3 -11 4 -20 2
-20 -4 0 -6 9 -11 20 -11 23 0 26 -10 8 -29 -11 -10 -7 -11 17 -5 29 7 29 7
14 -17 -13 -22 -13 -27 4 -59 l19 -35 -5 37 c-3 21 -2 40 3 43 16 10 50 -34
50 -65 0 -24 4 -30 21 -30 18 0 21 5 17 30 -3 20 0 30 9 30 16 0 17 34 3 61
-6 10 -18 19 -28 19 -15 0 -15 2 -2 10 13 9 13 12 -2 21 -24 14 -23 29 2 29
11 0 20 -4 20 -10 0 -5 8 -10 18 -9 10 0 12 3 5 6 -7 2 -13 14 -13 25 0 11
-10 33 -21 50 -18 25 -20 34 -10 54 17 38 14 47 -15 41 -28 -5 -46 19 -24 33
21 13 7 45 -19 42 -13 -1 -29 5 -37 15 -18 24 -17 33 4 33 14 0 15 2 2 10 -8
5 -26 10 -39 10 -20 0 -21 2 -11 15 10 13 9 15 -9 15 -14 0 -21 -6 -21 -20z"/>
<path d="M4109 1473 c-3 -36 3 -58 17 -69 8 -6 14 -21 14 -33 0 -11 2 -21 5
-21 11 0 45 41 45 55 0 8 5 15 10 15 12 0 13 -6 0 -29 -7 -14 -4 -24 10 -39
25 -27 25 -31 -2 -42 -22 -8 -21 -9 10 -16 18 -3 35 -11 38 -16 3 -5 15 -1 25
8 18 17 20 16 34 -2 14 -18 14 -18 15 4 0 12 -3 22 -8 22 -16 0 -34 42 -23 53
6 6 11 20 11 30 0 14 5 18 20 14 13 -3 20 0 20 9 0 8 -4 14 -10 14 -5 0 -10 7
-10 15 0 8 -7 15 -16 15 -11 0 -14 -6 -9 -20 4 -13 1 -22 -9 -26 -9 -3 -16
-10 -16 -15 0 -9 -36 -49 -45 -49 -3 0 -5 13 -5 29 0 17 -5 33 -11 37 -6 3 -9
14 -6 24 2 9 0 25 -5 34 -8 14 -12 13 -32 -9 -24 -25 -50 -32 -60 -16 -3 5 1
12 10 15 8 3 12 10 9 16 -10 16 -25 12 -26 -7z"/>
<path d="M3862 1447 c-5 -7 -17 -29 -25 -49 -16 -37 -30 -47 -41 -29 -3 5 -17
11 -31 13 -26 5 -55 -25 -55 -58 0 -10 -5 -14 -15 -10 -8 3 -22 3 -30 -1 -14
-5 -14 -8 0 -29 20 -32 19 -46 -10 -110 -27 -60 -30 -74 -15 -74 6 0 10 9 10
19 0 10 6 21 14 24 8 3 17 20 21 37 4 17 14 34 22 37 9 4 13 14 9 27 -5 22 22
56 45 56 6 0 8 9 4 20 -3 11 -2 20 3 20 6 0 12 -5 14 -12 6 -16 84 48 101 82
11 21 11 28 1 38 -9 8 -15 8 -22 -1z"/>
<path d="M3066 1413 c-13 -18 -15 -27 -7 -32 6 -4 9 -15 6 -24 -4 -9 4 -28 22
-47 15 -17 31 -44 34 -58 6 -26 7 -26 8 6 1 27 5 32 26 32 18 0 25 -5 25 -19
0 -11 5 -23 10 -26 6 -4 10 5 10 19 0 14 -5 26 -11 26 -6 0 -10 12 -8 28 1 15
-3 40 -10 55 -6 16 -11 33 -11 38 0 6 -12 9 -27 7 -16 -2 -32 2 -38 9 -7 9
-15 5 -29 -14z"/>
<path d="M911 1411 c-8 -14 -7 -22 4 -31 22 -18 19 -49 -4 -43 -15 4 -20 -3
-25 -31 -4 -20 -10 -36 -15 -36 -4 0 -24 18 -44 40 -38 43 -66 55 -47 20 6
-11 15 -20 20 -20 10 0 -5 -59 -20 -74 -17 -17 -11 -36 10 -36 15 0 20 -7 20
-26 0 -20 -4 -25 -16 -20 -9 3 -22 6 -30 6 -8 0 -14 6 -14 13 0 8 -9 22 -19
31 -11 10 -17 24 -15 31 3 7 1 16 -5 20 -25 15 -9 85 19 85 18 0 30 19 30 46
0 9 -4 13 -10 9 -5 -3 -25 -6 -45 -7 -36 -1 -56 -15 -38 -27 5 -3 13 -20 16
-37 5 -26 0 -37 -31 -71 -20 -22 -45 -43 -54 -46 -19 -7 -53 23 -64 55 -7 24
-26 19 -39 -10 -15 -33 -36 -28 -29 7 5 25 2 29 -21 35 -30 8 -65 0 -65 -15 0
-5 -13 -9 -29 -9 -26 0 -30 -4 -33 -32 -2 -24 -8 -32 -19 -30 -21 3 -34 -28
-17 -40 10 -6 0 -20 -34 -51 -49 -44 -60 -67 -33 -67 8 0 15 -3 15 -7 0 -5 25
-35 55 -67 30 -33 55 -63 55 -68 0 -4 5 -8 10 -8 6 0 10 7 10 15 0 18 17 20
22 3 13 -37 -19 -77 -37 -47 -4 6 -14 8 -22 5 -9 -4 -22 -1 -29 5 -18 14 -18
8 0 -26 8 -15 17 -22 21 -16 12 20 35 12 35 -12 0 -26 -45 -92 -63 -92 -7 0
-12 14 -12 34 0 46 -19 49 -55 9 l-31 -33 25 -21 c13 -12 26 -35 29 -50 l4
-29 2 28 c1 25 4 27 41 27 33 0 40 -4 40 -19 0 -10 7 -21 15 -25 8 -3 15 -12
15 -20 0 -8 13 -24 30 -36 34 -24 42 -8 9 19 -18 15 -19 20 -8 44 10 22 18 27
33 23 12 -3 36 -6 55 -6 33 0 34 0 27 -39 -7 -48 18 -77 60 -67 17 5 30 3 35
-5 5 -9 10 -4 14 14 4 14 15 29 25 32 25 8 32 43 13 72 -14 22 -14 25 2 43 17
19 17 21 0 46 -9 14 -26 29 -36 31 -23 6 -24 17 -4 36 13 13 11 16 -12 22 -25
6 -25 8 -19 62 4 30 2 60 -3 67 -9 11 2 113 14 125 4 3 19 6 35 7 25 1 30 -3
36 -30 l7 -31 11 27 c9 20 15 25 26 18 23 -14 30 -12 30 9 0 23 13 33 32 26
10 -4 13 -16 10 -35 -4 -25 -1 -30 16 -30 11 0 28 -3 37 -6 13 -5 12 0 -5 29
l-21 35 31 7 c25 6 34 2 56 -24 31 -37 51 -39 64 -8 7 17 4 26 -16 42 -13 12
-24 28 -24 37 0 9 -15 25 -32 37 l-33 20 30 6 c23 5 30 12 31 31 1 14 4 28 8
31 7 7 36 -22 36 -36 0 -14 17 -14 25 -1 5 8 11 7 21 -1 17 -14 19 2 2 19 -6
6 -8 15 -4 19 4 5 18 -5 31 -21 28 -36 49 -27 40 17 -9 41 -22 55 -31 34 -3
-9 -12 -17 -20 -17 -18 0 -64 44 -64 62 0 15 -19 38 -32 38 -4 0 -12 -9 -17
-19z m-521 -245 c5 -5 16 -6 25 -2 14 5 15 9 5 21 -11 13 -7 15 23 15 20 0 39
5 42 10 10 16 23 12 30 -10 3 -11 15 -20 26 -20 26 0 47 -44 30 -64 -7 -9 -21
-18 -32 -21 -12 -4 -19 -16 -19 -32 0 -20 -3 -24 -17 -17 -10 4 -35 8 -55 8
-42 0 -54 22 -16 28 13 2 24 11 26 21 5 24 -30 22 -53 -3 -10 -11 -24 -20 -32
-20 -15 0 -17 38 -4 59 6 9 4 23 -7 39 -13 20 -13 25 -1 33 10 6 15 3 17 -14
2 -12 8 -26 12 -31z"/>
<path d="M2120 1388 c0 -9 5 -20 10 -23 6 -3 10 -15 10 -25 0 -17 -6 -19 -42
-16 l-43 4 -3 -41 c-1 -23 0 -57 3 -75 6 -30 8 -32 23 -20 14 11 14 9 -1 -8
-21 -25 -28 -80 -10 -77 18 4 39 -102 24 -120 -13 -17 -42 -109 -36 -115 10
-10 44 45 45 69 0 26 24 47 34 30 3 -5 16 -6 30 -4 18 4 27 -1 36 -16 8 -16
17 -20 31 -16 14 5 21 0 29 -20 15 -40 54 -31 58 13 3 26 11 36 43 53 22 11
42 26 45 34 3 7 19 18 35 24 25 9 31 7 49 -16 19 -24 20 -25 20 -4 0 11 0 24
1 29 0 4 -10 10 -23 13 -24 6 -22 9 27 24 8 2 15 13 15 24 0 10 7 21 15 25 19
7 19 35 0 42 -18 7 -85 -33 -85 -51 0 -7 -10 -19 -22 -28 -13 -8 -41 -31 -62
-50 -22 -20 -43 -34 -48 -31 -4 3 -9 20 -9 37 -1 18 -3 24 -6 15 -2 -10 -11
-18 -19 -18 -8 0 -14 -10 -14 -23 0 -13 -6 -29 -12 -36 -9 -10 -10 -15 -2 -18
31 -11 47 -31 40 -49 -7 -17 -9 -17 -17 6 -12 30 -26 40 -61 40 -24 0 -28 4
-28 30 0 18 6 33 15 36 18 7 20 24 2 24 -19 0 -20 75 -1 91 12 10 17 10 23 1
10 -17 39 -5 46 19 6 19 8 19 36 2 36 -21 57 -8 40 25 -6 11 -11 28 -11 37 0
9 -7 23 -15 32 -9 8 -13 18 -10 22 8 7 44 -39 45 -56 0 -16 2 -16 34 -3 30 11
35 30 9 30 -10 0 -25 15 -34 33 -10 20 -23 31 -33 29 -10 -2 -22 10 -33 32
-15 33 -20 35 -80 42 -46 4 -67 3 -79 -7 -13 -10 -17 -10 -25 2 -7 12 -9 11
-9 -3z"/>
<path d="M2650 1380 c0 -12 -10 -25 -25 -32 -14 -6 -25 -14 -25 -17 0 -3 -3
-16 -6 -27 -4 -17 2 -26 30 -43 20 -12 41 -19 46 -16 16 10 37 -24 32 -50 -3
-19 -10 -22 -48 -21 -35 1 -44 5 -44 19 0 9 -4 17 -9 17 -5 0 -14 12 -19 28
-9 24 -11 25 -17 8 -5 -12 -1 -31 11 -54 21 -40 26 -83 10 -94 -7 -5 -5 -13 7
-25 17 -17 19 -17 31 0 7 9 18 17 25 17 6 0 11 7 11 15 0 8 6 16 13 16 61 6
94 27 67 44 -5 3 -10 21 -10 39 0 21 -8 40 -21 52 -14 13 -19 27 -17 46 4 27
-17 48 -25 25 -2 -7 -8 -9 -12 -4 -5 4 1 17 13 30 27 29 28 47 2 47 -13 0 -20
-7 -20 -20z"/>
<path d="M19274 1346 c-7 -7 -15 -27 -19 -44 -5 -24 -2 -34 13 -43 16 -10 18
-18 12 -46 -8 -34 -44 -72 -70 -73 -9 0 -5 -6 10 -15 32 -18 41 -18 34 0 -7
17 21 21 31 5 11 -18 27 1 21 25 -6 25 8 43 19 24 5 -6 13 -3 22 11 10 14 22
20 34 17 12 -3 19 0 19 9 0 8 -9 14 -20 14 -10 0 -24 9 -30 21 -11 19 -12 20
-24 3 -15 -20 -31 -13 -39 16 -4 16 -1 20 11 16 9 -3 28 1 41 8 l23 13 -28 26
c-32 30 -44 32 -60 13z"/>
<path d="M1457 1336 c-6 -15 -14 -17 -47 -11 -46 8 -110 -16 -110 -41 0 -8 -9
-25 -20 -37 -29 -30 -21 -48 25 -61 35 -10 41 -16 45 -46 5 -32 8 -35 38 -35
24 -1 32 4 32 17 0 10 -7 18 -15 18 -20 0 -35 32 -28 58 3 12 13 22 22 22 24
0 56 41 52 69 -1 13 3 27 9 31 7 4 10 14 8 21 -3 9 -6 8 -11 -5z"/>
<path d="M13698 1315 c-11 -25 -28 -34 -28 -15 0 13 -27 13 -35 0 -8 -13 22
-43 34 -36 10 7 24 -22 16 -34 -3 -5 -12 -7 -20 -3 -22 8 -19 -19 5 -45 11
-12 20 -26 20 -32 0 -11 13 -13 24 -3 12 12 50 11 82 -2 29 -12 31 -11 43 16
9 21 9 38 2 67 -10 34 -14 39 -36 34 -18 -3 -26 1 -31 14 -22 68 -55 85 -76
39z"/>
<path d="M1872 1285 c-7 -14 -12 -39 -12 -55 0 -16 -4 -32 -10 -35 -5 -3 -10
-15 -10 -25 0 -35 -17 -30 -36 10 -21 44 -40 54 -30 16 4 -18 0 -28 -17 -39
-13 -8 -29 -35 -37 -58 -7 -24 -22 -54 -33 -66 -12 -14 -17 -29 -12 -42 5 -17
0 -22 -34 -31 -25 -6 -42 -18 -46 -30 -7 -22 -41 -27 -47 -8 -3 7 -5 -8 -6
-33 -2 -32 3 -51 14 -60 13 -10 17 -10 24 1 4 7 20 14 36 16 15 2 31 8 35 15
12 21 39 1 39 -28 0 -37 37 -64 55 -39 14 18 -1 92 -24 120 -8 10 -11 26 -7
43 4 16 9 39 11 53 9 70 95 155 95 94 0 -8 -9 -14 -20 -14 -14 0 -20 -7 -20
-22 0 -13 -7 -32 -15 -42 -22 -29 -19 -93 6 -124 l22 -27 -5 35 c-4 23 5 68
25 129 27 86 31 93 44 75 9 -12 16 -15 21 -8 4 6 15 13 25 17 12 5 17 17 17
46 0 22 5 43 10 46 15 9 12 38 -2 32 -7 -2 -12 -9 -11 -14 3 -17 -24 -87 -36
-91 -17 -6 -26 28 -13 49 7 10 12 26 12 34 0 8 4 15 9 15 5 0 11 16 13 35 5
42 -13 47 -30 10z"/>
<path d="M2800 1290 c-19 -19 -19 -20 0 -65 20 -48 18 -77 -6 -68 -18 7 -19
-27 0 -52 13 -18 14 -18 20 3 10 30 26 18 26 -18 0 -19 -6 -31 -19 -35 -25 -7
-31 -24 -20 -53 12 -31 33 -23 37 14 1 16 7 38 11 49 5 11 13 29 17 40 7 18 8
17 12 -7 4 -32 9 -33 37 -12 16 12 17 18 8 33 -7 10 -8 22 -3 27 5 5 5 40 1
79 -6 51 -11 64 -16 48 -8 -25 -13 -27 -34 -14 -9 6 -10 11 -2 15 6 4 11 14
11 22 0 21 -56 18 -80 -6z"/>
<path d="M14716 1273 c-3 -3 -6 -20 -6 -37 -1 -28 -2 -29 -14 -13 -14 17 -27
23 -25 10 5 -28 -4 -50 -23 -58 -16 -7 -22 -17 -20 -35 3 -31 18 -40 65 -40
20 0 37 -1 37 -3 0 -1 -4 -17 -10 -36 -6 -22 -6 -40 1 -52 14 -27 29 -24 29 6
0 19 5 25 21 25 16 0 19 4 14 23 -4 12 -12 27 -19 32 -23 19 -26 44 -5 50 20
7 25 25 10 41 -5 5 -14 26 -21 46 -12 39 -23 52 -34 41z"/>
<path d="M1500 1180 c0 -5 4 -10 9 -10 5 0 11 -8 13 -18 4 -15 1 -18 -18 -14
-25 5 -33 -15 -14 -34 16 -16 4 -36 -40 -67 -44 -31 -51 -52 -20 -62 21 -7 29
-55 9 -55 -16 0 -139 113 -139 128 0 7 -14 12 -37 12 -38 0 -36 -15 2 -22 12
-2 23 -16 29 -36 5 -17 13 -32 17 -32 5 0 9 -9 9 -20 0 -13 10 -24 25 -30 14
-5 25 -14 25 -19 0 -5 9 -13 20 -16 26 -8 16 -25 -14 -25 -19 0 -22 -4 -18
-37 2 -26 0 -34 -6 -24 -5 7 -7 22 -5 32 4 13 0 19 -11 19 -11 0 -16 9 -16 31
0 24 -3 30 -16 25 -9 -3 -26 -6 -38 -6 -28 0 -47 -47 -39 -96 7 -41 16 -49 33
-29 9 11 17 12 31 4 27 -14 24 -44 -7 -73 -32 -29 -26 -56 10 -56 16 0 27 7
31 21 4 12 13 18 20 15 8 -3 17 3 20 13 3 10 14 26 25 36 11 10 20 29 20 42 0
12 5 23 10 23 6 0 10 -4 10 -10 0 -24 39 -8 48 20 10 29 10 29 -19 23 -25 -5
-29 -2 -29 15 0 12 5 24 10 27 6 3 10 15 10 26 0 10 4 19 9 19 5 0 16 16 25
35 9 19 20 37 25 39 5 3 12 18 16 33 3 15 15 39 26 54 25 35 24 66 -1 74 -11
3 -20 13 -20 21 0 8 -7 14 -15 14 -8 0 -15 -4 -15 -10z"/>
<path d="M57 1123 c-3 -5 -8 -34 -12 -65 -4 -32 -10 -58 -13 -58 -2 0 -11 8
-18 18 -12 15 -13 12 -14 -25 0 -36 3 -43 20 -43 27 0 60 -35 60 -62 -1 -21
-2 -20 -13 6 -12 27 -14 28 -30 12 -16 -17 -16 -19 3 -47 29 -40 39 -44 49
-17 11 28 19 12 23 -46 3 -40 14 -52 35 -38 10 6 10 17 1 47 -7 22 -17 43 -24
47 -6 4 -17 29 -23 55 -7 27 -17 65 -23 86 -12 39 -4 64 9 29 9 -23 23 -18 40
13 9 16 6 26 -19 57 -29 37 -42 45 -51 31z"/>
<path d="M10722 1077 c2 -22 -32 -67 -51 -67 -5 0 -14 -7 -21 -15 -10 -13 -9
-15 8 -15 12 0 24 -5 27 -11 10 -15 -15 -69 -31 -69 -18 0 -18 -11 1 -46 l15
-29 6 32 c4 18 10 30 15 28 4 -3 6 -12 3 -19 -3 -8 -1 -17 4 -20 14 -8 42 4
42 18 0 6 9 22 20 36 16 21 20 22 25 9 5 -15 10 -13 32 9 22 22 23 26 9 34 -9
5 -16 15 -16 22 0 8 -7 16 -15 20 -8 3 -15 17 -15 32 0 17 -6 28 -20 31 -11 3
-20 14 -20 24 0 11 -5 19 -11 19 -6 0 -9 -10 -7 -23z"/>
<path d="M13595 1012 c-14 -10 -75 -137 -75 -155 0 -25 28 -28 45 -4 l15 21 0
-22 c0 -12 6 -22 14 -22 7 0 21 -12 31 -26 14 -21 15 -31 6 -50 l-11 -24 -36
39 c-37 42 -55 44 -71 8 -10 -21 -11 -20 -17 11 -9 36 -6 35 -40 22 -14 -5
-26 -16 -26 -25 0 -8 -4 -15 -10 -15 -5 0 -18 -8 -28 -17 -9 -10 -31 -28 -47
-40 l-30 -23 21 -17 c12 -10 25 -28 29 -41 3 -12 18 -30 31 -39 19 -12 22 -18
13 -30 -9 -10 -8 -21 7 -48 10 -19 21 -35 24 -35 17 0 51 34 46 46 -3 8 0 14
7 14 20 0 47 38 47 65 0 31 8 31 70 0 30 -15 51 -21 55 -15 11 17 -5 70 -21
70 -8 0 -14 9 -13 23 1 15 3 17 6 5 6 -22 52 -27 81 -9 19 12 27 12 47 1 21
-11 25 -21 25 -56 0 -24 -4 -46 -10 -49 -12 -8 -13 -55 -1 -55 5 0 11 -9 14
-20 3 -11 12 -20 21 -20 19 0 22 41 4 70 -11 16 -9 22 7 34 30 23 43 19 56
-18 11 -32 53 -66 79 -66 6 0 23 9 37 20 36 28 46 25 38 -10 l-7 -30 49 0 c27
0 58 -6 68 -14 18 -13 18 -15 2 -30 -19 -20 -20 -25 -8 -45 7 -11 13 -8 26 13
10 14 24 26 32 26 13 0 14 3 1 23 -25 39 -28 66 -8 77 25 13 30 13 30 -4 0 -8
5 -18 10 -21 6 -4 10 5 10 19 0 18 -7 27 -22 31 -21 6 -38 29 -70 98 -7 15
-17 27 -22 27 -13 0 -35 -32 -36 -52 0 -26 -27 -11 -34 18 -5 19 -11 24 -26
19 -16 -5 -20 -2 -20 19 0 23 -4 26 -38 26 -21 0 -43 -5 -49 -11 -7 -7 -13 -8
-17 0 -4 6 2 19 12 29 22 22 67 111 59 118 -13 13 -59 -55 -107 -156 -15 -31
-36 -21 -58 27 -22 48 -26 88 -10 110 5 6 5 14 -1 17 -6 4 -8 13 -4 22 3 8 -3
24 -13 36 -14 15 -16 22 -6 25 13 5 17 23 4 23 -5 0 -14 -11 -20 -24 -6 -13
-20 -27 -31 -31 -11 -3 -22 -18 -26 -36 -6 -28 -9 -29 -43 -23 -74 14 -103 74
-62 127 29 37 26 72 -5 49z"/>
<path d="M20421 858 c-1 -9 -6 -18 -12 -20 -6 -2 -12 -15 -13 -28 -1 -18 -8
-26 -23 -28 -19 -3 -23 1 -23 22 0 14 -4 26 -10 26 -5 0 -7 7 -3 16 8 22 -46
15 -61 -8 -15 -25 14 -51 72 -63 36 -8 50 -16 60 -38 9 -19 21 -28 35 -26 36
2 40 0 27 -16 -7 -9 -10 -18 -6 -22 3 -3 -2 -15 -11 -25 -14 -16 -15 -23 -5
-38 7 -11 12 -29 12 -40 0 -13 7 -20 20 -20 19 0 20 7 20 126 l0 126 -24 -6
c-19 -5 -25 -1 -31 17 -20 56 -23 63 -24 45z"/>
<path d="M13044 780 c7 -42 0 -48 -34 -30 -15 8 -19 5 -24 -16 -5 -19 -11 -24
-26 -19 -14 5 -20 2 -20 -10 0 -12 5 -15 22 -9 40 12 112 6 125 -12 7 -9 10
-21 7 -26 -3 -5 -1 -22 6 -38 9 -22 19 -29 48 -32 20 -3 45 -8 54 -12 14 -6
21 0 35 28 20 42 40 46 49 11 7 -28 34 -35 34 -9 0 9 -8 24 -18 33 -10 9 -21
24 -25 34 -4 10 -11 15 -17 12 -5 -3 -10 -1 -10 6 0 7 -13 10 -35 7 -31 -3
-36 -1 -45 26 -14 40 -14 39 20 33 23 -5 30 -3 30 9 0 8 -8 17 -17 20 -10 3
-27 10 -37 16 -15 8 -22 7 -31 -6 -16 -21 -21 -20 -52 4 -38 30 -46 25 -39
-20z"/>
<path d="M967 786 c-4 -9 -2 -18 3 -21 13 -8 13 -58 -1 -72 -8 -8 -8 -13 0
-17 16 -10 13 -53 -5 -81 -9 -14 -13 -25 -8 -25 4 0 -2 -10 -13 -22 -24 -28
-39 -88 -20 -88 6 0 23 9 37 19 19 15 24 27 22 59 -3 40 7 55 52 77 12 6 22
22 24 37 2 15 10 32 18 38 15 14 19 66 5 74 -4 3 -16 -3 -26 -14 -25 -28 -33
-25 -43 12 -9 35 -36 49 -45 24z"/>
<path d="M1875 756 c-30 -48 -63 -63 -95 -46 -24 13 -26 5 -5 -16 8 -9 15 -28
15 -44 0 -32 14 -47 26 -28 5 8 10 4 15 -10 11 -30 47 -29 59 2 5 13 20 35 34
49 19 19 26 37 26 66 0 84 -32 95 -75 27z"/>
<path d="M2591 661 c-10 -10 -22 -17 -25 -14 -3 4 -21 -1 -38 -9 -18 -9 -45
-22 -60 -29 -30 -13 -37 -44 -18 -80 10 -18 12 -18 35 8 23 27 24 28 38 8 13
-16 17 -17 31 -6 9 7 23 11 31 7 12 -4 20 4 30 28 8 19 19 37 24 40 12 8 -1
58 -16 63 -7 3 -21 -5 -32 -16z"/>
<path d="M19685 660 c3 -5 -1 -20 -9 -32 -9 -12 -16 -29 -16 -36 0 -30 -34
-84 -62 -98 -17 -9 -43 -30 -58 -48 -16 -17 -44 -38 -64 -46 -34 -13 -46 -33
-27 -44 9 -6 59 20 132 68 55 37 69 54 69 83 0 16 6 23 19 23 28 0 38 19 43
83 4 51 3 57 -14 57 -11 0 -16 -4 -13 -10z"/>
<path d="M90 654 c0 -21 -46 -37 -69 -25 -19 11 -21 9 -21 -22 0 -72 50 -143
72 -104 5 10 15 17 23 17 7 0 21 7 29 16 15 14 17 14 32 -1 19 -19 38 -15 42
8 2 11 -6 17 -25 19 -22 2 -29 9 -31 31 -2 15 2 27 8 27 7 0 6 5 -2 14 -7 7
-19 11 -26 8 -8 -3 -18 1 -23 9 -5 8 -9 9 -9 3z"/>
<path d="M4301 649 c0 -9 -8 -19 -16 -23 -8 -3 -15 -12 -15 -21 0 -9 -12 -18
-31 -22 -22 -4 -34 -14 -41 -34 -12 -36 -31 -37 -46 -3 -7 14 -17 22 -23 19
-7 -5 -5 -15 6 -31 14 -22 14 -25 -5 -36 -11 -7 -20 -19 -20 -26 0 -23 -63
-93 -96 -107 -45 -19 -82 -28 -66 -17 23 16 10 47 -21 50 -38 5 -57 -14 -57
-55 0 -30 2 -33 19 -23 34 18 42 11 20 -19 -19 -25 -19 -32 -8 -69 12 -40 11
-44 -26 -104 -21 -35 -40 -65 -42 -68 -3 -3 -13 6 -23 20 l-19 25 -21 -28
c-12 -15 -26 -25 -31 -22 -12 8 -12 52 1 60 14 9 12 25 -2 25 -17 1 -51 47
-44 59 4 5 15 7 26 4 14 -4 20 0 20 12 0 11 5 15 15 11 11 -4 15 1 15 17 0 16
-3 18 -9 8 -7 -10 -13 -11 -30 -2 -11 7 -21 17 -21 23 0 7 -5 6 -15 -2 -12
-10 -15 -9 -15 5 0 9 -13 30 -29 46 -37 37 -61 30 -61 -17 0 -29 -3 -34 -24
-34 -31 0 -45 18 -54 70 -5 27 -15 47 -27 54 -11 6 -23 15 -27 21 -5 6 -10 6
-17 0 -6 -6 -5 -24 4 -49 12 -35 12 -41 -3 -52 -9 -8 -23 -14 -29 -14 -20 0
-15 -28 7 -50 11 -11 20 -28 20 -37 1 -17 1 -17 11 0 12 21 32 22 49 3 6 -8
18 -12 26 -9 9 3 14 -2 14 -14 0 -10 4 -23 9 -28 6 -6 6 -26 0 -54 -12 -55 -5
-78 27 -84 31 -6 42 15 25 47 -7 13 -11 36 -9 52 l3 29 20 -23 c11 -12 27 -22
37 -22 10 0 18 -5 18 -10 0 -6 11 -15 25 -20 28 -10 25 -35 -5 -45 -10 -3 -21
-12 -24 -20 -4 -13 14 -15 117 -15 l122 0 3 67 c3 69 13 93 39 93 12 0 14 8 9
34 -9 49 0 69 27 54 12 -7 29 -11 37 -10 12 2 15 -6 12 -37 -4 -35 -7 -40 -36
-45 -25 -5 -33 -13 -43 -43 -6 -21 -9 -41 -7 -45 10 -15 24 -8 24 12 0 13 10
24 25 30 14 5 25 13 25 17 0 5 14 14 30 21 28 13 32 12 50 -10 11 -12 17 -30
14 -38 -18 -44 -17 -50 9 -50 13 0 30 7 37 15 18 22 30 9 31 -33 1 -35 2 -36
8 -8 7 35 23 43 44 21 21 -20 24 -20 54 15 13 17 28 28 33 25 4 -2 10 -23 14
-45 l6 -40 64 0 c57 0 64 2 74 24 9 20 8 25 -5 30 -8 4 -21 2 -28 -4 -9 -7
-21 -6 -41 5 -16 8 -35 15 -41 15 -19 0 -16 127 3 134 8 3 14 12 14 19 0 17
38 106 52 124 13 17 48 -1 49 -25 1 -9 6 3 11 26 5 24 8 45 6 47 -7 7 -82 -23
-86 -34 -5 -15 -35 -14 -50 1 -9 9 -12 8 -12 -5 0 -9 5 -17 10 -17 38 0 4 -92
-42 -116 -23 -12 -33 -13 -44 -3 -11 9 -14 7 -14 -10 0 -11 -4 -21 -10 -21 -5
0 -10 11 -10 24 0 12 -11 43 -24 68 l-24 45 20 18 c16 13 18 19 8 25 -7 5 -19
6 -27 3 -8 -3 -13 3 -13 19 0 13 -7 33 -15 45 -24 35 -10 70 31 78 24 4 38 14
44 29 10 26 54 40 82 25 25 -14 38 -11 38 9 -1 27 -26 67 -34 53 -11 -18 -24
-13 -29 12 -2 12 -5 15 -6 6z"/>
<path d="M20083 631 c-9 -12 -25 -21 -34 -21 -23 0 -81 -68 -77 -88 3 -11 12
-16 27 -14 13 1 34 -5 47 -13 13 -8 30 -15 38 -15 8 0 26 -5 40 -11 20 -10 23
-15 14 -29 -16 -25 14 -86 51 -104 27 -14 61 -56 61 -74 0 -10 -77 -62 -91
-62 -6 0 -7 -5 -4 -10 4 -6 2 -17 -5 -25 -8 -10 -8 -15 0 -20 6 -4 9 -13 6
-21 -3 -8 1 -14 8 -14 8 0 16 6 19 13 6 17 47 -21 47 -44 0 -13 11 -19 48 -24
35 -4 53 -13 67 -31 16 -21 25 -24 86 -24 l69 0 0 117 c0 112 -1 115 -18 100
-23 -21 -42 -22 -42 -3 0 8 -12 23 -26 33 -24 18 -25 22 -18 73 5 30 10 47 12
38 5 -24 39 -32 58 -14 8 9 20 16 25 16 5 0 9 16 9 35 0 19 -4 35 -10 35 -5 0
-9 5 -7 12 1 6 -6 14 -15 16 -12 2 -19 -5 -24 -23 -3 -14 -15 -30 -25 -36 -27
-14 -72 9 -79 40 -8 36 -26 36 -33 1 -5 -22 -12 -30 -28 -30 -13 0 -31 -7 -41
-16 -14 -14 -20 -14 -33 -4 -24 20 -19 50 9 50 27 0 35 16 41 75 2 23 -1 35
-10 35 -22 0 -35 -26 -29 -57 4 -23 2 -32 -11 -37 -31 -12 -46 12 -39 64 6 46
6 48 -20 48 -15 0 -36 8 -46 17 -19 17 -19 19 -3 37 9 10 14 21 10 24 -3 3
-14 -4 -24 -15z"/>
<path d="M4882 577 c-25 -41 -36 -76 -33 -104 1 -11 -3 -24 -8 -28 -15 -9 -14
-42 2 -49 8 -3 7 -9 -7 -20 -23 -18 -13 -36 21 -36 16 0 27 -7 30 -20 7 -28
23 -15 23 19 0 33 9 44 25 31 19 -16 42 11 48 55 3 22 3 34 0 28 -2 -7 -12
-13 -22 -13 -9 0 -26 -7 -37 -15 -31 -24 -51 -18 -58 16 -7 38 -3 45 30 52 20
3 28 0 31 -14 7 -26 21 -24 25 3 4 27 25 35 32 11 3 -10 3 0 1 21 -5 47 -21
68 -35 46 -8 -12 -10 -11 -10 7 0 12 -9 27 -19 33 -16 8 -23 5 -39 -23z"/>
<path d="M13701 538 c-10 -24 -21 -51 -24 -60 -7 -20 -61 -25 -72 -8 -3 6 -1
10 4 10 6 0 11 14 11 30 0 43 -17 37 -22 -7 -5 -42 9 -83 28 -83 7 0 15 -9 19
-19 3 -10 15 -21 27 -24 18 -5 19 -8 8 -21 -14 -18 -43 -21 -70 -6 -15 8 -19
4 -28 -32 -12 -48 -9 -57 16 -42 11 7 26 8 40 3 18 -7 29 -2 57 24 29 26 36
41 40 81 3 27 11 59 20 72 19 29 19 54 1 54 -18 0 -27 23 -15 41 13 21 11 29
-7 29 -8 0 -23 -18 -33 -42z"/>
<path d="M2484 499 c-3 -6 -1 -22 7 -35 17 -33 3 -46 -56 -46 -30 -1 -49 -6
-52 -15 -6 -14 16 -52 48 -84 12 -12 19 -33 19 -58 0 -49 13 -59 73 -53 l48 4
-26 43 c-14 24 -25 55 -25 70 0 26 0 26 60 19 52 -6 60 -4 60 10 0 9 -6 16
-14 16 -8 0 -22 20 -32 46 -11 29 -27 50 -46 60 -15 8 -28 19 -28 24 0 14 -27
13 -36 -1z"/>
<path d="M19753 493 c-27 -18 -30 -58 -6 -72 14 -8 15 -13 5 -35 -16 -36 -36
-33 -78 14 -20 22 -40 37 -45 34 -16 -9 -10 -43 11 -62 11 -10 22 -32 26 -49
5 -26 2 -31 -25 -43 -30 -12 -31 -14 -15 -31 15 -17 15 -20 -6 -49 -15 -22
-27 -29 -40 -25 -11 4 -26 -2 -37 -13 -25 -26 -53 -34 -70 -21 -21 18 -25 5
-8 -27 8 -16 15 -36 15 -45 0 -9 7 -19 15 -23 8 -3 15 -15 15 -26 0 -20 5 -20
315 -20 l315 0 0 28 c0 37 -8 44 -32 29 -16 -10 -22 -9 -34 7 -18 26 -18 82 0
89 8 3 20 16 26 28 12 21 11 21 -36 14 -27 -3 -53 -11 -58 -16 -13 -12 -56
-12 -56 0 0 13 -84 32 -88 21 -8 -22 -42 -9 -47 18 -3 15 -10 42 -14 60 -7 25
-6 32 5 32 16 0 19 26 4 35 -19 12 -10 45 15 55 32 12 32 27 0 42 -13 6 -22
15 -19 19 6 10 -13 49 -24 48 -4 0 -17 -7 -29 -16z"/>
<path d="M2088 480 c-23 -22 -23 -21 12 -73 33 -49 42 -117 16 -117 -18 0 -33
-43 -17 -48 6 -2 11 -10 11 -17 0 -22 29 -33 56 -21 17 8 24 19 24 41 0 40 10
75 21 75 5 0 9 -13 9 -30 0 -19 7 -33 20 -40 19 -10 20 -8 20 44 0 77 -12 105
-44 99 -32 -6 -93 39 -104 77 -7 25 -8 26 -24 10z"/>
<path d="M7356 427 c-15 -12 -53 -45 -83 -73 l-54 -51 23 -36 c26 -40 46 -53
62 -37 15 15 35 100 24 106 -4 3 -6 10 -3 15 4 5 16 2 29 -6 21 -14 24 -13 42
13 12 15 24 42 27 60 6 28 4 32 -16 32 -12 -1 -35 -11 -51 -23z"/>
<path d="M1846 398 l7 -40 -25 16 c-13 9 -28 13 -31 9 -12 -12 -7 -36 10 -48
21 -16 11 -43 -22 -55 -14 -5 -25 -16 -25 -23 0 -8 -12 -27 -26 -42 -22 -24
-25 -32 -15 -48 11 -16 7 -24 -33 -60 -36 -34 -45 -48 -44 -74 1 -29 4 -33 29
-33 20 0 27 4 23 14 -4 11 3 14 31 12 20 -2 41 -8 48 -15 17 -17 177 -14 196
3 20 18 71 31 71 19 0 -5 -5 -14 -12 -21 -9 -9 10 -12 87 -11 55 0 93 3 85 6
-8 3 -19 12 -23 19 -4 8 -14 14 -22 14 -8 0 -22 11 -31 25 -12 18 -24 25 -43
23 -21 -2 -26 1 -26 19 -1 25 -27 57 -67 81 -48 28 -45 58 10 85 15 6 36 30
48 51 21 37 21 41 6 73 -15 32 -35 42 -46 24 -3 -5 -15 -7 -26 -4 -24 6 -27
-13 -4 -38 10 -11 13 -25 9 -38 -5 -17 -9 -19 -28 -9 -12 6 -29 14 -37 18 -8
4 -16 18 -18 31 -2 14 -15 31 -32 41 l-30 17 6 -41z"/>
<path d="M9976 345 c-55 -98 -81 -206 -54 -228 17 -13 41 -77 29 -77 -4 0 -12
5 -19 12 -15 15 -42 -7 -42 -33 0 -17 8 -19 64 -19 35 0 87 7 115 17 47 15 52
15 69 0 10 -10 30 -17 43 -17 24 0 25 2 19 48 -4 26 -9 52 -11 57 -11 28 59
19 86 -11 27 -29 55 -27 55 4 0 10 -9 27 -20 37 -11 10 -20 25 -20 33 0 10 -7
12 -25 8 -16 -4 -34 -1 -47 8 -18 13 -23 13 -43 0 -12 -8 -30 -12 -39 -8 -12
5 -16 0 -16 -19 0 -28 -17 -38 -50 -30 -14 4 -29 -2 -45 -17 -26 -25 -71 -22
-81 5 -10 26 11 69 37 75 20 5 24 12 24 44 0 23 6 42 16 49 27 20 41 57 35 92
-13 67 -29 61 -80 -30z"/>
<path d="M19993 418 c-5 -7 -15 -27 -22 -44 -16 -41 -50 -77 -66 -70 -7 2 -20
-3 -29 -13 -15 -16 -15 -19 -1 -31 11 -9 19 -10 28 -2 10 9 19 8 34 -3 19 -13
23 -13 37 0 8 8 18 25 21 36 7 20 12 21 81 14 63 -6 74 -4 74 9 0 8 -5 18 -10
21 -6 4 -8 15 -5 26 4 13 2 19 -8 19 -9 0 -18 6 -20 13 -3 6 -8 -2 -12 -20 -4
-17 -13 -34 -21 -37 -18 -7 -46 36 -38 59 11 27 -25 46 -43 23z"/>
<path d="M5753 366 c8 -54 -6 -71 -43 -51 -46 26 -50 21 -46 -51 3 -54 9 -71
28 -91 21 -20 28 -22 51 -14 15 6 27 15 27 20 0 5 11 19 25 32 13 13 25 30 25
37 0 15 12 16 27 1 6 -6 9 -26 6 -45 -4 -22 -2 -34 6 -34 6 0 11 8 11 19 0 10
9 21 20 24 49 13 23 77 -32 77 -22 0 -28 4 -28 23 0 24 -54 97 -72 97 -7 0 -9
-16 -5 -44z"/>
<path d="M167 323 c-2 -10 3 -31 10 -46 19 -38 13 -101 -9 -105 -12 -2 -19 5
-24 23 -8 33 -33 16 -27 -19 3 -13 0 -27 -6 -30 -7 -5 -9 -22 -5 -45 4 -26 1
-48 -10 -69 l-17 -32 30 0 c17 0 42 5 56 12 19 9 28 9 37 0 7 -7 26 -12 42
-12 30 0 31 2 34 47 1 26 9 54 17 63 8 9 15 23 15 32 0 8 3 18 7 22 4 4 8 34
9 67 2 51 0 59 -12 49 -11 -10 -16 -7 -23 13 -12 32 -39 47 -85 47 -25 0 -36
-5 -39 -17z"/>
<path d="M7155 289 c-4 -12 -12 -18 -21 -15 -7 3 -25 -5 -38 -19 -29 -29 -88
-42 -123 -26 -24 11 -25 11 -18 -16 4 -15 7 -36 7 -45 -1 -14 7 -18 35 -18 34
0 35 -1 21 -17 -30 -35 -29 -56 5 -96 32 -36 34 -37 106 -37 64 0 72 2 61 15
-7 9 -29 15 -55 15 -48 0 -55 6 -80 73 l-18 49 49 49 c27 26 57 48 67 49 12 0
17 8 17 30 0 35 -6 39 -15 9z"/>
<path d="M9760 285 c-6 -15 -8 -42 -4 -61 5 -30 3 -34 -20 -40 -18 -4 -26 -13
-26 -28 0 -11 -4 -28 -10 -36 -8 -12 -11 -12 -28 3 -28 25 -34 21 -26 -21 5
-30 4 -35 -7 -25 -7 7 -16 13 -21 13 -8 0 -58 -70 -58 -82 0 -10 200 -10 201
0 9 106 13 119 55 192 24 42 44 80 44 83 0 4 -15 7 -33 7 -18 0 -38 5 -45 12
-8 8 -14 5 -22 -17z"/>
<path d="M19151 260 c-28 -39 -21 -64 27 -107 31 -27 35 -35 26 -50 -8 -13 -8
-25 -1 -41 8 -17 8 -29 -1 -43 -11 -18 -9 -19 31 -19 24 0 49 6 55 12 10 10
17 10 32 0 23 -14 80 -16 80 -3 0 5 -16 18 -35 30 -45 26 -51 66 -6 42 24 -13
43 2 39 30 -2 17 -13 26 -38 34 -47 13 -65 26 -79 53 -6 12 -16 22 -22 22 -6
0 -5 -8 2 -21 9 -17 8 -25 -4 -37 -43 -42 -82 40 -52 111 13 30 -29 20 -54
-13z"/>
<path d="M2652 245 c-17 -12 -21 -24 -19 -56 2 -37 4 -39 27 -34 l26 6 -1 -81
-1 -80 78 0 c43 0 78 2 78 4 0 3 -11 17 -25 31 -18 21 -23 34 -18 56 5 24 1
30 -21 39 -22 8 -26 16 -26 48 0 41 -14 62 -42 62 -10 0 -18 5 -18 10 0 14
-12 12 -38 -5z"/>
<path d="M614 215 c-16 -14 -36 -25 -45 -25 -28 0 -63 -35 -56 -54 6 -14 15
-17 45 -13 20 3 48 8 60 12 21 7 23 5 20 -16 -2 -17 -15 -28 -53 -42 -27 -11
-63 -20 -80 -21 -27 -1 -30 2 -33 33 -3 30 -43 80 -64 81 -7 0 -59 -107 -73
-150 -5 -17 -2 -20 24 -20 19 0 31 5 31 13 0 7 6 22 14 32 12 16 18 18 37 8
36 -17 63 -26 72 -24 4 0 10 -6 13 -14 4 -10 20 -15 51 -15 24 0 42 4 39 9
-10 16 6 42 22 36 8 -3 25 5 39 19 20 20 31 24 55 19 29 -6 29 -5 16 16 -8 14
-20 20 -32 17 -10 -3 -28 -1 -41 4 -17 7 -21 14 -18 34 3 14 9 26 14 26 16 0
10 48 -7 54 -21 8 -17 9 -50 -19z"/>
<path d="M13058 233 c-29 -7 -24 -78 7 -107 13 -12 28 -31 33 -42 4 -10 17
-34 27 -51 20 -32 21 -33 95 -33 57 0 71 3 62 12 -23 23 -14 40 18 33 37 -8
38 -3 3 30 -33 30 -63 32 -70 5 -3 -11 -13 -20 -23 -20 -18 0 -45 48 -70 123
-8 25 -21 42 -37 48 -13 5 -25 8 -26 8 -1 -1 -10 -3 -19 -6z"/>
<path d="M7547 157 c-11 -28 -21 -63 -24 -77 -5 -24 -5 -24 9 -6 14 18 17 17
43 -27 15 -26 33 -47 41 -47 20 0 45 43 51 87 5 37 3 39 -39 58 -29 14 -44 27
-46 43 -5 35 -15 26 -35 -31z"/>
<path d="M1603 130 c-16 -25 -68 -51 -87 -44 -8 3 -18 14 -21 24 -5 15 -13 18
-43 13 -45 -7 -54 -19 -46 -58 4 -16 7 -38 7 -47 1 -16 13 -18 93 -18 86 0 92
1 87 19 -3 10 1 30 8 42 11 21 24 89 17 89 -2 0 -9 -9 -15 -20z"/>
</g>
</svg>
